<svg xmlns="http://www.w3.org/2000/svg" width="41" height="41" viewBox="0 0 41 41">
    <g fill="none" fill-rule="evenodd">
        <rect width="41" height="41" rx="4"/>
        <g fill-rule="nonzero">
            <path fill="#455A64" d="M13.982.854v19.633c0 .408-.446.653-.78.427L7.14 16.813c-.085-.058-.195-.058-.28 0l-6.062 4.1c-.334.227-.78-.017-.78-.426V.854C.018.382.393 0 .855 0h12.29c.462 0 .837.382.837.854z" transform="translate(14 10)"/>
            <path fill="#FFC107" d="M7.45 4.472l.988 2.04c.074.152.215.256.379.28l2.208.328c.412.06.577.577.279.874L9.706 9.582c-.119.118-.173.287-.145.453l.377 2.243c.07.419-.36.738-.729.54L7.234 11.76c-.147-.078-.321-.078-.468 0l-1.975 1.06c-.369.197-.8-.122-.73-.541l.378-2.243c.028-.166-.026-.335-.145-.453L2.696 7.994c-.298-.297-.134-.813.279-.874l2.208-.327c.164-.025.305-.13.379-.28l.987-2.041c.185-.38.717-.38.902 0z" transform="translate(14 10)"/>
            <path fill="#455A64" d="M13.145 0h-1.597c.463 0 .838.382.838.854V20.36l.816.553c.334.226.78-.019.78-.427V.854c0-.472-.375-.854-.837-.854z" transform="translate(14 10)"/>
        </g>
    </g>
</svg>
