<svg xmlns="http://www.w3.org/2000/svg" width="16" height="16" viewBox="0 0 16 16">
    <g fill="none" fill-rule="evenodd">
        <g fill="#FFC107" fill-rule="nonzero">
            <g>
                <path d="M13.938 1.25H12.5V.5c0-.276-.224-.5-.5-.5s-.5.224-.5.5v.75h-7V.5C4.5.224 4.276 0 4 0s-.5.224-.5.5v.75H2.062C.925 1.25 0 2.175 0 3.313v10.624C0 15.075.925 16 2.063 16h11.874C15.075 16 16 15.075 16 13.937V3.313c0-1.138-.925-2.063-2.063-2.063zM15 13.938c0 .586-.476 1.062-1.063 1.062H2.063C1.476 15 1 14.524 1 13.937v-8.28c0-.087.07-.157.156-.157h13.688c.086 0 .156.07.156.156v8.282z" transform="translate(-18 -241) translate(18 241)"/>
            </g>
        </g>
    </g>
</svg>
