<svg xmlns="http://www.w3.org/2000/svg" width="20" height="19" viewBox="0 0 20 19">
    <g fill="none" fill-rule="evenodd">
        <g fill="#455A64" fill-rule="nonzero">
            <g>
                <g>
                    <path d="M19.978 9.42L18.14 2.205c-.131-.481-.613-.787-1.094-.7l-3.455.7c-.175.044-.35.044-.481-.044L6.812.06c-.218-.087-.437-.043-.656 0L2.395 1.592c-.306.132-.525.35-.569.657L.033 9.377c-.088.306 0 .656.262.919.219.218.569.35.919.262l1.093-.306v-.088c-.262-1.487.044-3.018.919-4.242 1.05-1.531 2.8-2.45 4.68-2.45 1.137 0 2.274.35 3.193 1.006 2.274 1.531 3.062 4.462 2.012 6.867h.044c.13.044.262.044.437.044l5.599-.744c.262-.043.524-.175.656-.393.13-.219.175-.569.13-.831z" transform="translate(-26 -366) translate(16 348) translate(10 18)"/>
                    <path d="M9.087 7.321c-.35-.262-.787-.393-1.225-.393-.743 0-1.4.35-1.793.962-.306.437-.394.918-.35 1.443l.525-.13c.175-.045.35-.045.525 0l2.974 1.005c.525-1.006.262-2.23-.656-2.887zM3.4 12.657l-1.88 3.15c-.481.83-.219 1.924.612 2.405.263.175.569.263.875.263.612 0 1.181-.306 1.487-.875l1.794-3.018c-.613-.175-1.181-.437-1.706-.787-.438-.306-.831-.7-1.181-1.138z" transform="translate(-26 -366) translate(16 348) translate(10 18)"/>
                    <path d="M10.574 5.134c-.831-.568-1.793-.83-2.712-.83-1.53 0-3.062.743-3.98 2.099-1.487 2.187-.962 5.161 1.225 6.692.83.568 1.793.831 2.711.831 1.531 0 3.062-.744 3.98-2.1 1.532-2.187.963-5.16-1.224-6.692zm-.219 5.73c-.612.875-1.574 1.312-2.537 1.312-.612 0-1.18-.175-1.705-.525-1.4-.962-1.75-2.886-.788-4.242.613-.875 1.575-1.312 2.537-1.312.612 0 1.181.175 1.706.524 1.4.919 1.75 2.844.787 4.243z" transform="translate(-26 -366) translate(16 348) translate(10 18)"/>
                </g>
            </g>
        </g>
    </g>
</svg>
