<svg xmlns="http://www.w3.org/2000/svg" width="15" height="16" viewBox="0 0 15 16">
    <g fill="none" fill-rule="evenodd">
        <g fill="#FFF" fill-rule="nonzero">
            <g>
                <g>
                    <g>
                        <g>
                            <path d="M5.833 13C4.271 13 3 11.729 3 10.167V3.333H1.833C.822 3.333 0 4.155 0 5.167v9C0 15.178.822 16 1.833 16h8.334C11.178 16 12 15.178 12 14.167V13H5.833z" transform="translate(-208 -586) translate(16 522) translate(90 53) translate(47 11) translate(55)"/>
                            <path d="M14.667 1.833C14.667.821 13.846 0 12.833 0h-7C4.821 0 4 .82 4 1.833v8.334C4 11.179 4.82 12 5.833 12h7c1.013 0 1.834-.82 1.834-1.833V1.833z" transform="translate(-208 -586) translate(16 522) translate(90 53) translate(47 11) translate(55)"/>
                        </g>
                    </g>
                </g>
            </g>
        </g>
    </g>
</svg>
