<svg xmlns="http://www.w3.org/2000/svg" width="154" height="125" viewBox="0 0 154 125">
    <defs>
        <linearGradient id="ag7g0f6ika" x1="50%" x2="50%" y1="100%" y2="0%">
            <stop offset="0%" stop-color="gray" stop-opacity=".25"/>
            <stop offset="53.514%" stop-color="gray" stop-opacity=".12"/>
            <stop offset="100%" stop-color="gray" stop-opacity=".1"/>
        </linearGradient>
        <linearGradient id="vlh0rimr2b" x1="50%" x2="50%" y1="100%" y2="0%">
            <stop offset="0%" stop-color="gray" stop-opacity=".25"/>
            <stop offset="53.514%" stop-color="gray" stop-opacity=".12"/>
            <stop offset="100%" stop-color="gray" stop-opacity=".1"/>
        </linearGradient>
        <linearGradient id="rk6cdh1nsc" x1="50%" x2="50%" y1="100%" y2="0%">
            <stop offset="0%" stop-color="gray" stop-opacity=".25"/>
            <stop offset="53.514%" stop-color="gray" stop-opacity=".12"/>
            <stop offset="100%" stop-color="gray" stop-opacity=".1"/>
        </linearGradient>
        <linearGradient id="0t203o0f3d" x1="50%" x2="50%" y1="100%" y2="0%">
            <stop offset="0%" stop-color="gray" stop-opacity=".25"/>
            <stop offset="53.514%" stop-color="gray" stop-opacity=".12"/>
            <stop offset="100%" stop-color="gray" stop-opacity=".1"/>
        </linearGradient>
    </defs>
    <g fill="none" fill-rule="evenodd">
        <g>
            <g>
                <g>
                    <g transform="translate(-113 -245) translate(16 245) translate(21) translate(76)">
                        <path fill="#3F3D56" fill-rule="nonzero" d="M22.853 100.204c0 7.532-4.477 10.162-10 10.162-.128 0-.256-.001-.383-.005-.256-.006-.51-.017-.76-.035-4.985-.352-8.858-3.118-8.858-10.122 0-7.247 9.261-16.393 9.96-17.072v-.001l.041-.04s10 9.581 10 17.113z"/>
                        <path fill="#F2F2F2" fill-rule="nonzero" d="M12.488 109.214l3.658-5.111-3.667 5.671-.01.587c-.255-.006-.509-.017-.76-.035l.395-7.535-.003-.058.007-.011.037-.712-3.676-5.686 3.687 5.152.01.151.297-5.693-3.147-5.875 3.186 4.875.31-11.802v-.04.039l-.05 9.307 3.132-3.69-3.146 4.491-.082 5.098 2.925-4.892-2.938 5.643-.046 2.833 4.247-6.81-4.263 7.8-.103 6.303z"/>
                        <g fill="url(#ag7g0f6ika)" fill-rule="nonzero" opacity=".7" transform="translate(129.69 45.45)">
                            <path d="M9.154 1.965V.151H.084v8.39c0 .976.792 1.768 1.77 1.768h5.531c.977 0 1.769-.792 1.769-1.769V6.681c1.302 0 2.358-1.055 2.358-2.358 0-1.302-1.056-2.358-2.358-2.358zm0 3.81V2.871c.801 0 1.451.65 1.451 1.451 0 .802-.65 1.451-1.451 1.451z"/>
                        </g>
                        <path fill="#FFC107" fill-rule="nonzero" d="M138.551 47.699c-1.189 0-2.153.964-2.153 2.153s.964 2.153 2.153 2.153c1.19 0 2.153-.964 2.153-2.153 0-1.19-.964-2.153-2.153-2.153zm0 3.478c-.731 0-1.325-.594-1.325-1.325 0-.732.594-1.325 1.325-1.325.732 0 1.325.593 1.325 1.325 0 .731-.593 1.325-1.325 1.325z"/>
                        <path fill="#000" fill-rule="nonzero" d="M138.551 47.699c-1.189 0-2.153.964-2.153 2.153s.964 2.153 2.153 2.153c1.19 0 2.153-.964 2.153-2.153 0-1.19-.964-2.153-2.153-2.153zm0 3.478c-.731 0-1.325-.594-1.325-1.325 0-.732.594-1.325 1.325-1.325.732 0 1.325.593 1.325 1.325 0 .731-.593 1.325-1.325 1.325z" opacity=".1"/>
                        <path fill="#FFC107" fill-rule="nonzero" d="M130.27 46.043h8.281v7.65c0 .897-.726 1.624-1.623 1.624h-5.034c-.896 0-1.623-.727-1.623-1.623v-7.651z"/>
                        <path fill="#000" fill-rule="nonzero" d="M137.06 46.043v7.66c0 .89-.722 1.614-1.614 1.614h.828c.892 0 1.615-.723 1.615-1.615v-7.66h-.828z" opacity=".1"/>
                        <path fill="#EEE" fill-rule="nonzero" d="M131.905 39.87c-.144.004-.278.072-.366.185-.108.197.088.419.268.554.332.25.682.496.907.844.226.35.297.836.05 1.17-.322.437-1.09.531-1.164 1.068-.048.345.25.64.552.813.746.427 1.708.541 2.248 1.21.223-.46.723-.726 1.222-.839.498-.113 1.016-.105 1.52-.182.168-.003.324-.086.42-.223.142-.286-.26-.63-.122-.918.106-.219.417-.202.643-.29.37-.142.522-.617.417-1-.105-.381-.4-.68-.712-.924-.84-.66-1.848-1.047-2.869-1.326-.474-.13-1.031-.333-1.524-.353-.476-.02-1.02.13-1.49.21z"/>
                        <path stroke="#E0E0E0" stroke-width="8" d="M73.786 57.272L56.472 111.212"/>
                        <g fill="url(#vlh0rimr2b)" fill-rule="nonzero" opacity=".7" transform="translate(31.798)">
                            <path d="M55.403 117.287c-2.13.124-4.027 1.908-4.027 1.908l-.917-2.276-.075.025c.448-1.962 9.567-42.407.438-45.893-7.014-2.68-14.454-5.995-20.284-5.87v-9.555h8.173v-.34h6.47c1.24-.886-.562-1.495-2.576-1.876.082-.094.154-.196.215-.304l10.363-18.592s2.383-3.915.851-5.788c-1.532-1.873-3.746 4.767-3.746 4.767L41.775 45.75s-8.591-8.955-14.057-13.408c-.607-.601-1.291-1.118-2.035-1.538-.998-.675-1.753-1.025-2.125-.888l-.01.006c-.83-.23-1.685-.346-2.544-.346h-.681V28.18c3.089-1.02 5.562-3.364 6.747-6.393 1.946-3.223 2.304-7.161.972-10.683.102-.012.2-.046.287-.1.308-.198.339-.632.309-.997-.227-2.49-1.667-4.71-3.85-5.93-.862-.472-1.85-.797-2.486-1.547-.547-.644-.777-1.545-1.438-2.07-.786-.625-1.92-.517-2.885-.239-1.073.31-2.09.79-3.011 1.421-1.043.715-1.985 1.632-3.185 2.028-.853.28-1.779.275-2.637.539-1.336.423-2.393 1.454-2.85 2.78-.218.701-.301 1.438-.244 2.171-.522.873-.933 1.808-1.223 2.783-.064.034-.128.068-.192.104l.187-.084c-1.329 4.485.01 9.334 3.453 12.501 1.333 1.736 3.157 3.03 5.236 3.716v1.69c-1.483.32-2.898.9-4.179 1.711l-.002-.002s-.109.067-.295.192l-.055.038c-1.26.855-5.482 3.98-5.34 7.356-.005.13-.004.26.003.39-.23.976-.347 1.975-.348 2.978v24.5c-.003 2.708.907 5.337 2.583 7.463-3.553.797-5.818 2.001-5.818 3.35.018.112.018.227 0 .34 0 2.397 7.166 4.341 16.005 4.341 1.068 0 2.112-.028 3.122-.083l9.987 8.085-16.004 25.71s-5.278 4.085-1.192 5.447c4.086 1.363 12.43 2.384 12.43 2.384s1.361-2.384-.512-3.405c-1.872-1.022-4.426-.51-4.426-.51l.34-2.044s27.752-23.836 21.963-32.008c-1.107-1.564-2.215-3.177-3.332-4.765l4.37.398.993 37.418.125-.04c-.25.734-2.015 6.282 1.897 5.343 4.189-1.005 11.81-4.55 11.81-4.55s-.105-2.743-2.235-2.62zM38.711 52.902l-8.173-2.372v-6.992l8.883 9.43c-.437-.045-.71-.066-.71-.066z"/>
                        </g>
                        <circle cx="48.647" cy="16.484" r="11.987" fill="#000" fill-rule="nonzero"/>
                        <path fill="#FFC107" fill-rule="nonzero" d="M62.299 43.954l9.148 9.71c.39.415.955.619 1.52.549.566-.07 1.064-.406 1.342-.904L84.44 35.13l-2.83-.999-8.324 11.987S57.66 29.83 55.473 30.635c-2.186.806 6.826 13.319 6.826 13.319z"/>
                        <path stroke="#BDBDBD" stroke-width="5" d="M44.818 77.583L31.333 112.544M51.478 77.583L64.963 112.544"/>
                        <ellipse cx="48.148" cy="77.833" fill="#B84733" fill-rule="nonzero" rx="15.649" ry="4.245"/>
                        <ellipse cx="48.148" cy="77.5" fill="#F55F44" fill-rule="nonzero" rx="15.649" ry="4.245"/>
                        <path stroke="#BDBDBD" stroke-width="5" d="M41.563 85.264L56.328 89.814M54.733 85.264L39.968 89.814"/>
                        <path fill="#FFC107" fill-rule="nonzero" d="M48.33 30.302h4.646c5.149 0 9.323 4.174 9.323 9.323v24.64H35.662V42.97c0-6.997 5.672-12.669 12.668-12.669z"/>
                        <path fill="#39447A" fill-rule="nonzero" d="M35.662 64.265h26.637v14.484H47.482c-6.528 0-11.82-5.293-11.82-11.82v-2.664z"/>
                        <path fill="#000" fill-rule="nonzero" d="M36.022 40.298L52.31 55.774h17.98v-2.33l-15.483-4.496-13.244-16.355s-6.014 3.716-5.541 7.705z" opacity=".05"/>
                        <path fill="#FFC107" fill-rule="nonzero" d="M36.022 39.965L52.31 55.44h17.98v-2.33l-15.483-4.496L41.563 32.26s-6.014 3.716-5.541 7.705z"/>
                        <path fill="#FDA57D" fill-rule="nonzero" d="M70.29 53.11s8.657.666 6.326 2.331H70.29v-2.33zM81.61 34.131s2.165-6.492 3.663-4.661c1.499 1.831-.832 5.66-.832 5.66l-2.83-.999z"/>
                        <path fill="#000" fill-rule="nonzero" d="M35.662 64.265L35.662 65.042 62.299 65.097 62.299 64.265z" opacity=".05"/>
                        <path fill="#39447A" fill-rule="nonzero" d="M56.383 79.672L74.3 81.304l.972 36.588 6.414-2.088s9.594-41.453.446-44.948c-9.148-3.494-19.037-8.095-24.941-4.345-5.904 3.75-.81 13.16-.81 13.16z"/>
                        <path fill="#000" fill-rule="nonzero" d="M57.471 68.427s9.822 4.994 11.154 10.654" opacity=".1"/>
                        <path fill="#39447A" fill-rule="nonzero" d="M46.983 78.582l13.984 11.32-15.65 25.14 6.494 1.83s27.136-23.307 21.476-31.298c-5.66-7.99-11.321-17.314-18.313-17.48-6.992-.167-7.991 10.488-7.991 10.488z"/>
                        <path fill="#000" fill-rule="nonzero" d="M68.958 41.79L72.454 47.783 73.287 46.118z" opacity=".05"/>
                        <path fill="#333" fill-rule="nonzero" d="M45.318 115.042s-5.161 3.995-1.166 5.327c3.996 1.332 12.154 2.33 12.154 2.33s1.331-2.33-.5-3.329c-1.831-.999-4.328-.5-4.328-.5l.333-1.997-6.493-1.831zM75.421 117.774s-2.267 6.287 1.829 5.304c4.095-.982 11.547-4.449 11.547-4.449s-.102-2.682-2.185-2.562c-2.082.121-3.938 1.866-3.938 1.866l-.897-2.226-6.356 2.067z"/>
                        <rect width="6.659" height="9.989" x="45.651" y="24.475" fill="#FDA57D" fill-rule="nonzero" rx="3.33"/>
                        <path fill="#000" fill-rule="nonzero" d="M48.98 24.808c-1.838 0-3.33 1.491-3.33 3.33v1.131c2.164.712 4.497.712 6.66 0v-1.13c0-1.84-1.49-3.33-3.33-3.33z" opacity=".05"/>
                        <circle cx="48.98" cy="18.815" r="10.655" fill="#FDA57D" fill-rule="nonzero"/>
                        <path fill="#000" fill-rule="nonzero" d="M38.326 18.332s2.663.686 4.162-2.341c1.498-3.028 2.663-4.68 8.823-2.89 6.16 1.789 7.4 2.007 7.695.315.203-1.156-1.988-3.963-3.395-5.626-.687-.81-1.807-1.295-3.005-1.295h-6.955l-4.162 1.927-3.163 2.752-.666 3.716.666 3.442z" opacity=".05"/>
                        <path fill="#000" fill-rule="nonzero" d="M38.326 17.999s2.663.686 4.162-2.341c1.498-3.028 2.663-4.68 8.823-2.89 6.16 1.789 7.4 2.007 7.695.315.203-1.156-1.988-3.963-3.395-5.626-.687-.81-1.807-1.294-3.005-1.294h-6.955l-4.162 1.926-3.163 2.752-.666 3.716.666 3.442z"/>
                        <ellipse cx="39.408" cy="17.983" fill="#FDA57D" fill-rule="nonzero" rx="1.082" ry="2.164"/>
                        <path fill="#000" fill-rule="nonzero" d="M38.634 12.414c-.247-1.394-.49-2.857-.04-4.2.447-1.295 1.48-2.303 2.787-2.717.84-.258 1.744-.253 2.578-.527 1.174-.387 2.095-1.284 3.115-1.983.9-.617 1.895-1.086 2.944-1.39.943-.272 2.053-.377 2.821.234.647.514.871 1.395 1.406 2.025.622.733 1.588 1.05 2.431 1.512 2.134 1.194 3.543 3.363 3.765 5.798.029.357-.001.782-.303.976-.187.095-.398.134-.607.111-4.258-.06-8.522-.122-12.763-.513-1.318-.121-2.639-.275-3.962-.225-2.047.08-4.047.644-5.834 1.646"/>
                        <rect width="25.652" height="10.916" y="107.425" fill="#FFC107" fill-rule="nonzero" rx="5.458"/>
                        <path fill="url(#rk6cdh1nsc)" fill-rule="nonzero" d="M95.873 68.454c.134-.004.241-.115.241-.25 0-.134-.107-.244-.241-.249-.135.005-.241.115-.241.25 0 .134.106.245.24.25z"/>
                        <path stroke="#E0E0E0" stroke-width="8" d="M132.515 57.272L149.829 118.886"/>
                        <path fill="#E0E0E0" fill-rule="nonzero" d="M56.402 55.468H149.899V59.111000000000004H56.402z"/>
                        <rect width="15.316" height="2.164" x="79.447" y="54.609" fill="#535461" fill-rule="nonzero" rx="1.082"/>
                        <g fill="url(#0t203o0f3d)" fill-rule="nonzero" opacity=".7" transform="translate(88.735 30.466)">
                            <rect width="38.068" height="26.321" x=".035" y=".013" rx="13.16"/>
                        </g>
                        <rect width="36.061" height="25.835" x="89.448" y="30.965" fill="#3E3F49" fill-rule="nonzero" rx="12.918"/>
                        <rect width="36.061" height="25.835" x="89.948" y="30.965" fill="#535461" fill-rule="nonzero" rx="12.918"/>
                        <circle cx="109.663" cy="43.704" r="1.165" fill="#E0E0E0" fill-rule="nonzero"/>
                    </g>
                </g>
            </g>
        </g>
    </g>
</svg>
