<svg xmlns="http://www.w3.org/2000/svg" width="20" height="20" viewBox="0 0 20 20">
    <g fill="none" fill-rule="evenodd">
        <g fill="#FFC107" fill-rule="nonzero">
            <g>
                <g>
                    <path d="M19.705 9.171L10.425.188c-.259-.25-.67-.25-.928 0L.217 9.17c-.43.416-.133 1.146.464 1.146H3.01v9.016c0 .369.299.667.667.667H7.12v-6.861c0-.368.299-.667.667-.667h4.348c.368 0 .667.298.667.667V20h3.444c.368 0 .667-.298.667-.667v-9.016h2.328c.598 0 .893-.73.464-1.146z" transform="translate(-26 -299) translate(16 282) translate(10 17)"/>
                </g>
            </g>
        </g>
    </g>
</svg>
