<svg xmlns="http://www.w3.org/2000/svg" width="12" height="12" viewBox="0 0 12 12">
    <g fill="none" fill-rule="evenodd">
        <g fill="#FFC107" fill-rule="nonzero">
            <g>
                <path d="M6 0C2.692 0 0 2.692 0 6s2.692 6 6 6 6-2.692 6-6-2.692-6-6-6zm.39 9.56c-.285.047-.852.166-1.14.19-.244.02-.474-.12-.614-.32s-.174-.456-.091-.686l1.134-3.119H4.5c-.001-.65.486-1.128 1.11-1.311.297-.088.852-.207 1.14-.189.173.011.474.12.614.32s.174.456.091.686L6.321 8.25H7.5c0 .65-.47 1.203-1.11 1.31zm.36-5.81C6.336 3.75 6 3.414 6 3s.336-.75.75-.75.75.336.75.75-.336.75-.75.75z" transform="translate(-320 -50) translate(320 50)"/>
            </g>
        </g>
    </g>
</svg>
