<svg xmlns="http://www.w3.org/2000/svg" width="220" height="175" viewBox="0 0 220 175">
    <g fill="none" fill-rule="evenodd">
        <g fill-rule="nonzero">
            <g>
                <g transform="translate(-71 -290) translate(16 290) translate(55)">
                    <circle cx="117.552" cy="22.555" r="14.441" fill="#FF6584"/>
                    <path fill="#F2F2F2" d="M74.07 92.055c0 27.892-16.581 37.63-37.035 37.63C16.58 129.685 0 119.947 0 92.055c0-27.891 37.035-63.374 37.035-63.374S74.07 64.164 74.07 92.055z"/>
                    <path fill="#3F3D56" d="M35.686 125.419L36.065 102.076 51.85 73.198 36.124 98.414 36.295 87.919 47.174 67.025 36.34 85.141 36.34 85.141 36.647 66.264 48.296 49.63 36.695 63.295 36.886 28.681 35.682 74.504 35.781 72.614 23.937 54.484 35.591 76.243 34.488 97.325 34.455 96.765 20.801 77.687 34.414 98.742 34.276 101.379 34.251 101.419 34.262 101.635 31.462 155.123 35.203 155.123 35.652 127.496 49.231 106.492z"/>
                    <path fill="#F2F2F2" d="M183.818 77.422c0 34.075-20.257 45.972-45.245 45.972-24.988 0-45.244-11.897-45.244-45.972C93.329 43.348 138.573 0 138.573 0s45.245 43.348 45.245 77.422z"/>
                    <path fill="#3F3D56" d="M136.925 118.182L137.388 89.665 156.673 54.385 137.461 85.191 137.669 72.369 150.96 46.844 137.725 68.976 137.725 68.976 138.099 45.914 152.331 25.593 138.158 42.287 138.392 0 136.921 55.981 137.042 53.671 122.572 31.523 136.81 58.104 135.462 83.86 135.422 83.177 118.74 59.869 135.371 85.592 135.202 88.813 135.172 88.861 135.186 89.126 131.765 154.471 136.335 154.471 136.884 120.719 153.474 95.059z"/>
                    <ellipse cx="90.249" cy="154.555" fill="#3F3D56" rx="69.497" ry="2.482"/>
                    <ellipse cx="187.952" cy="171.591" fill="#3F3D56" rx="32.041" ry="3.046"/>
                    <path fill="#2F2E41" d="M86.187 78.288H94.31V154.555H86.187z"/>
                    <path fill="#3F3D56" d="M127.48 95.662L77.613 95.662 77.613 81.673 127.48 81.673 141.921 88.667z"/>
                    <path fill="#000" d="M127.48 94.534L77.613 94.534 77.613 95.662 127.48 95.662 141.921 88.667 140.756 88.103z" opacity=".1"/>
                    <path fill="#3F3D56" d="M53.244 114.165L103.111 114.165 103.111 100.175 53.244 100.175 38.803 107.17z"/>
                    <path fill="#000" d="M39.967 106.606L38.803 107.17 53.244 114.165 103.111 114.165 103.111 113.037 53.244 113.037z" opacity=".1"/>
                    <path fill="#FFC107" d="M105.593 84.38H114.167V92.954H105.593z"/>
                    <circle cx="71.069" cy="107.17" r="4.287" fill="#FFC107"/>
                    <circle cx="90.249" cy="88.216" r="2.482" fill="#2F2E41"/>
                    <circle cx="90.249" cy="106.719" r="2.482" fill="#2F2E41"/>
                    <path fill="#FFC107" d="M73.552 146.056c0 5.07-3.014 6.84-6.732 6.84-.086 0-.172 0-.258-.003-.172-.003-.343-.012-.512-.023-3.355-.238-5.962-2.099-5.962-6.814 0-4.88 6.236-11.037 6.704-11.492v-.001l.028-.026s6.732 6.45 6.732 11.52z"/>
                    <path fill="#3F3D56" d="M66.575 152.12l2.462-3.44-2.469 3.818-.006.395c-.172-.003-.343-.012-.512-.023l.266-5.072-.002-.04.004-.007.025-.48-2.474-3.827 2.482 3.468.006.102.2-3.832-2.118-3.955 2.144 3.282.209-7.945v-.027.026l-.034 6.265 2.109-2.484-2.118 3.024-.056 3.431 1.97-3.293-1.978 3.798-.03 1.908 2.858-4.584-2.87 5.25-.068 4.243z"/>
                    <path fill="#575A89" d="M177.581 166.043s-3.195 2.69-4.876 2.522c-1.682-.168-4.877-.168-3.531 1.682 1.345 1.85 6.894 2.858 9.248 3.026 2.354.169 7.567.337 7.23-.672-.336-1.01-.672-5.717-2.017-6.054-1.346-.336-6.054-.504-6.054-.504zM195.918 163.401s-2.354 3.45-4.02 3.74c-1.664.29-4.741 1.149-2.949 2.57 1.793 1.42 7.41.9 9.722.429 2.313-.47 7.379-1.71 6.784-2.591-.595-.882-2.185-5.326-3.57-5.289-1.387.038-5.967 1.141-5.967 1.141z"/>
                    <path fill="#2F2E41" d="M175.71 114.06s-2.165 14.822-1.66 17.512c.504 2.69.84 6.894.84 6.894s-.336 3.531 0 5.213c.337 1.681 2.355 17.656 2.355 17.992 0 .336-.337 1.345 0 2.186.336.84 1.009.168 0 1.513-1.01 1.345-.337 1.682-.168 1.682.168 0 6.726.672 7.062 0 .336-.673-.168-.841 0-1.682.168-.84.336-1.009.673-1.177.336-.168 1.008.168.504-.672-.504-.841-1.681-1.85-1.345-2.354.336-.505-.168-4.204-.168-4.204s-.337-8.24-.505-13.284c-.168-5.045 1.514-10.257 1.514-10.257.209 4.127 1.742 8.077 4.371 11.266 4.372 5.212 6.558 14.965 6.558 14.965s1.01 1.514.505 2.859-2.018.504-.505 1.345c1.514.84 6.726-.336 7.23-.84.505-.505-.672-1.178-.335-2.523.336-1.345 1.681-1.009.504-1.682-1.177-.672-1.513-.504-1.513-1.177 0-.672-3.027-15.301-7.735-19.505l-.337-15.302s4.204-10.761-.168-11.77c-4.372-1.01-17.677 3.003-17.677 3.003z"/>
                    <path fill="#A0616A" d="M178.758 74.233s2.859 7.062 2.186 8.07c-.673 1.01 8.24-3.362 8.24-3.362s-2.86-7.063-2.86-7.903c0-.841-7.566 3.195-7.566 3.195z"/>
                    <circle cx="180.86" cy="69.777" r="6.222" fill="#A0616A"/>
                    <path fill="#FFC107" d="M189.183 76.082s-4.371-.504-6.557 2.186-2.523 3.363-2.523 3.363-5.212 8.408-4.203 12.612c.245.38.47.772.672 1.177.336.672.336 10.089 0 11.602s-.672 2.018-.336 4.204-2.69 5.717.84 6.39c3.532.672 6.222.168 7.4-1.346 1.176-1.513.167-2.522 3.867-2.522 3.699 0 6.053-2.522 6.053-2.522s-1.85-2.018-1.177-2.354c.673-.337 0-1.177-.336-2.018-.337-.84-.337-1.514.168-1.514.504 0 .168-.336-.168-1.177-.337-.84 5.885-15.301 2.186-19.505-3.7-4.204-5.55-6.558-5.55-6.558s.673-2.522-.336-2.018z"/>
                    <path fill="#A0616A" d="M179.599 92.057v7.398l-5.38 17.824s-3.532 9.248 0 9.248c3.53 0 3.341-8.827 3.341-8.827l7.588-13.368s3.027-10.594 2.69-11.435c-.336-.84-8.24-.84-8.24-.84z"/>
                    <path fill="#FFC107" d="M182.457 81.127s-5.044 2.018-3.699 7.398c1.345 5.381 0 5.213 0 5.213s6.894-.673 9.08.84l.505-2.017s2.018-11.602-5.886-11.434z"/>
                    <path fill="#2F2E41" d="M178.736 65.106c-.79.28-1.666.143-2.332-.363-.634-.522-.903-1.486-.53-2.217.322-.632 1.01-.979 1.671-1.238 1.457-.57 2.991-.916 4.551-1.027.744-.053 1.525-.045 2.19.295.328.168.613.41.938.585.598.32 1.294.391 1.94.598 1.339.436 2.422 1.432 2.97 2.728.175.435.298.89.365 1.355.193 1.271.058 2.571-.393 3.776-.716 1.909-2.22 3.577-2.305 5.614-.92-.668-1.26-1.872-1.998-2.738-.549-.64-1.298-1.074-2.126-1.232-.229-.014-.449-.095-.633-.231-.128-.154-.209-.341-.231-.54l-.63-2.973c-.128-.605-.29-1.264-.787-1.632-.31-.198-.661-.322-1.027-.362-.868-.151-1.747-.231-2.628-.24"/>
                </g>
            </g>
        </g>
    </g>
</svg>
