<svg xmlns="http://www.w3.org/2000/svg" width="20" height="20" viewBox="0 0 20 20">
    <g fill="none" fill-rule="evenodd">
        <g fill="#455A64" fill-rule="nonzero">
            <g>
                <g>
                    <path d="M14.563 12.31c-.31.5-.65 1.023-1.018 1.567 3.094.463 4.678 1.453 4.678 1.946 0 .657-2.807 2.196-8.25 2.196-5.442 0-8.248-1.539-8.248-2.196 0-.493 1.583-1.483 4.678-1.946-.369-.544-.708-1.066-1.02-1.567C2.332 12.885 0 14.069 0 15.823c0 2.574 5.018 3.921 9.973 3.921 4.957 0 9.974-1.347 9.974-3.92 0-1.755-2.33-2.939-5.384-3.514z" transform="translate(-26 -431) translate(16 414) translate(10 17)"/>
                    <g>
                        <path d="M6.083.203C2.849.203.228 2.825.228 6.058c0 2.32 3.012 6.757 4.715 9.082.267.363.69.578 1.14.578.45 0 .874-.215 1.14-.578 1.703-2.325 4.715-6.763 4.715-9.082 0-3.233-2.621-5.855-5.855-5.855zm0 9.49c-1.91 0-3.465-1.554-3.465-3.464s1.554-3.465 3.465-3.465c1.91 0 3.464 1.554 3.464 3.465 0 1.91-1.554 3.464-3.464 3.464z" transform="translate(-26 -431) translate(16 414) translate(10 17) translate(3.913)"/>
                        <path d="M6.083 4.121c-1.162 0-2.107.946-2.107 2.108 0 1.161.945 2.107 2.107 2.107 1.162 0 2.107-.946 2.107-2.107 0-1.163-.945-2.108-2.107-2.108z" transform="translate(-26 -431) translate(16 414) translate(10 17) translate(3.913)"/>
                    </g>
                </g>
            </g>
        </g>
    </g>
</svg>
