<svg xmlns="http://www.w3.org/2000/svg" width="24" height="15" viewBox="0 0 24 15">
    <g fill="#FFC107">
        <path d="M19.5 2.031c.603 0 1.206.132 1.791.39.157.07.341.055.484-.044.143-.098.225-.262.218-.435C21.945.87 21.069.032 20 .032H2c-1.103 0-2 .896-2 2v5c0 1.102.897 2 2 2h11.5c.276 0 .5-.224.5-.5v-.5c0-.64.316-1.248.844-1.626.116-.083.192-.211.207-.353.246-2.293 2.16-4.022 4.449-4.022zM4.616 4.598c.24.138.321.444.183.683-.092.16-.26.25-.433.25-.085 0-.171-.021-.25-.067L4 5.397v.134c0 .277-.224.5-.5.5s-.5-.223-.5-.5v-.134l-.116.067c-.079.046-.165.067-.25.067-.173 0-.34-.09-.433-.25-.139-.239-.056-.545.183-.683l.116-.067-.116-.067c-.24-.138-.321-.443-.183-.683.138-.239.444-.321.683-.183L3 3.665v-.134c0-.276.224-.5.5-.5s.5.224.5.5v.134l.116-.067c.238-.138.545-.056.683.183.139.24.056.545-.183.683l-.116.067.116.067zm4 0c.24.138.322.444.183.683-.092.16-.26.25-.433.25-.085 0-.171-.021-.25-.067L8 5.397v.134c0 .277-.224.5-.5.5s-.5-.223-.5-.5v-.134l-.116.067c-.079.046-.165.067-.25.067-.173 0-.34-.09-.433-.25-.139-.239-.056-.545.183-.683l.116-.067-.116-.067c-.24-.138-.322-.443-.183-.683.137-.239.443-.321.683-.183L7 3.665v-.134c0-.276.224-.5.5-.5s.5.224.5.5v.134l.116-.067c.238-.138.544-.056.683.183.139.24.056.545-.183.683l-.116.067.116.067zm4 0c.24.138.322.444.183.683-.092.16-.26.25-.433.25-.085 0-.171-.021-.25-.067L12 5.397v.134c0 .277-.224.5-.5.5s-.5-.223-.5-.5v-.134l-.116.067c-.079.046-.165.067-.25.067-.173 0-.34-.09-.433-.25-.139-.239-.056-.545.183-.683l.116-.067-.116-.067c-.24-.138-.322-.443-.183-.683.137-.239.444-.321.683-.183l.116.067v-.134c0-.276.224-.5.5-.5s.5.224.5.5v.134l.116-.067c.238-.138.545-.056.683.183.139.24.056.545-.183.683l-.116.067.116.067z"/>
        <path d="M23 7.031v-.5c0-1.93-1.57-3.5-3.5-3.5s-3.5 1.57-3.5 3.5v.5c-.551 0-1 .449-1 1v5c0 .551.449 1 1 1h7c.551 0 1-.449 1-1v-5c0-.551-.449-1-1-1zm-3 3.846v.654c0 .277-.224.5-.5.5s-.5-.223-.5-.5v-.654c-.293-.174-.5-.48-.5-.846 0-.551.449-1 1-1 .551 0 1 .449 1 1 0 .365-.207.672-.5.846zm1-3.846h-3v-.5c0-.827.673-1.5 1.5-1.5s1.5.673 1.5 1.5v.5z"/>
    </g>
</svg>
