<svg xmlns="http://www.w3.org/2000/svg" width="16" height="24" viewBox="0 0 16 24">
    <g fill="none" fill-rule="evenodd">
        <g fill="#455A64" fill-rule="nonzero">
            <g>
                <g>
                    <g>
                        <path d="M14.462.67V.669C14.037.241 13.459 0 12.856 0H2.308C1.056.004.041 1.019.038 2.271v19.406c0 .602.24 1.18.667 1.605.425.427 1.002.668 1.603.669h10.55c.602-.001 1.18-.242 1.604-.669.427-.424.667-1 .668-1.603V2.274c-.001-.602-.241-1.179-.668-1.603zM7.584 22.41c-.34 0-.614-.276-.614-.615 0-.338.275-.613.614-.613.338 0 .613.275.613.613 0 .34-.275.614-.613.614zm5.742-3.853c0 .82-.664 1.484-1.484 1.484h-8.52c-.819 0-1.484-.664-1.484-1.484V4.095c0-.82.665-1.485 1.485-1.485h8.521c.82 0 1.485.665 1.485 1.485l-.003 14.462z" transform="translate(-28 -626) translate(16 545) translate(0 66) translate(12 15)"/>
                    </g>
                </g>
            </g>
        </g>
    </g>
</svg>
