<svg xmlns="http://www.w3.org/2000/svg" width="15" height="20" viewBox="0 0 15 20">
    <g fill="none" fill-rule="evenodd">
        <g fill="#FFC107" fill-rule="nonzero">
            <g>
                <g>
                    <path d="M7.266 0C3.272 0 .022 3.25.022 7.243c0 4.957 6.482 12.233 6.758 12.54.26.29.712.289.97 0 .277-.307 6.759-7.583 6.759-12.54C14.509 3.25 11.259 0 7.266 0zm0 10.887c-2.01 0-3.645-1.634-3.645-3.644 0-2.01 1.635-3.644 3.645-3.644 2.009 0 3.644 1.635 3.644 3.644 0 2.01-1.635 3.644-3.644 3.644z" transform="translate(-29 -167) translate(16 150) translate(13 17)"/>
                </g>
            </g>
        </g>
    </g>
</svg>
