<svg xmlns="http://www.w3.org/2000/svg" width="12" height="12" viewBox="0 0 12 12">
    <g fill="none" fill-rule="evenodd">
        <g fill="#FFC107" fill-rule="nonzero" stroke="#FFF" stroke-width="1.5">
            <g>
                <g>
                    <g>
                        <g>
                            <path d="M6.46 8.546V6.378h2.162C9.383 6.378 10 5.76 10 5c0-.76-.617-1.378-1.378-1.378H6.46h0V1.454C6.46.651 5.808 0 5.005 0 4.2 0 3.55.651 3.55 1.454v2.168h0-2.172C.617 3.622 0 4.24 0 5c0 .76.617 1.378 1.378 1.378H3.55v2.168c0 .803.651 1.454 1.455 1.454.803 0 1.454-.651 1.454-1.454z" transform="translate(-27 -345) translate(16 101) translate(0 233) translate(12 7) translate(0 5)"/>
                        </g>
                    </g>
                </g>
            </g>
        </g>
    </g>
</svg>
