<svg xmlns="http://www.w3.org/2000/svg" width="125" height="100" viewBox="0 0 125 100">
    <g fill="none" fill-rule="evenodd">
        <g fill-rule="nonzero">
            <g transform="translate(-234 -70) matrix(-1 0 0 1 358.762 70)">
                <circle cx="34.828" cy="52.277" r="14.037" fill="#E6E6E6"/>
                <path fill="#CCC" d="M31.035 72.775l3.453 2.14V60.45l-3.87-2.398c-.32-.198-.554-.51-.655-.872.37-.07.752 0 1.072.198l3.453 2.14V53.91c0-1.085.133-2.166.396-3.219.264 1.053.397 2.134.397 3.219v9.154l5.094-3.157c.406-.252.877-.382 1.355-.374-.205.432-.531.795-.938 1.047l-5.511 3.416V98.2h-.793V75.847l-3.87-2.399c-.32-.198-.554-.51-.655-.872.37-.07.752 0 1.072.199z"/>
                <circle cx="14.037" cy="53.469" r="14.037" fill="#E6E6E6"/>
                <path fill="#CCC" d="M17.83 73.967l-3.453 2.14V61.642l3.87-2.398c.32-.199.554-.51.655-.872-.37-.071-.752 0-1.072.198l-3.453 2.14v-5.609c0-1.085-.133-2.166-.397-3.218-.263 1.052-.396 2.133-.396 3.218v9.154L8.49 61.1c-.407-.252-.877-.382-1.356-.374.206.432.532.795.939 1.047l5.511 3.416v33.088h.793V77.038l3.87-2.398c.32-.198.554-.51.655-.872-.37-.07-.752 0-1.072.199z"/>
                <circle cx="24.234" cy="24.168" r="24.168" fill="#E6E6E6"/>
                <path fill="#CCC" d="M30.764 59.46l-5.945 3.684V38.242l6.663-4.129c.551-.341.954-.877 1.128-1.502-.636-.121-1.296 0-1.846.342l-5.945 3.684v-9.656c0-1.868-.23-3.73-.683-5.541-.453 1.812-.682 3.673-.682 5.54v15.762l-8.77-5.435c-.7-.434-1.511-.658-2.335-.644.355.744.916 1.37 1.616 1.804l9.49 5.88V98.33h1.364V64.75l6.663-4.13c.551-.341.954-.877 1.128-1.501-.636-.122-1.296 0-1.846.341z"/>
                <path fill="#3F3D56" d="M9.639 98.201H123.726V99.201H9.639z"/>
                <path fill="#FF6584" d="M89.878 44.8L96.416 44.8 96.416 51.338 89.878 51.338z" transform="rotate(-30 93.147 48.069)"/>
                <path fill="#2F2E41" d="M94.416 53.715l-3.414-5.913 5.913-3.413 3.413 5.912-5.912 3.414zm-3.02-5.807l3.126 5.412 5.412-3.124-3.125-5.413-5.412 3.125z"/>
                <circle cx="89.119" cy="66.859" r="2.744" fill="#D0CDE1"/>
                <path fill="#2F2E41" d="M91.14 69.747c-1.595 0-2.888-1.293-2.888-2.888s1.293-2.888 2.889-2.888c1.595 0 2.888 1.293 2.888 2.888s-1.293 2.888-2.888 2.888zm0-5.488c-1.435 0-2.599 1.164-2.599 2.6 0 1.436 1.164 2.6 2.6 2.6 1.435 0 2.599-1.164 2.599-2.6 0-1.436-1.164-2.6-2.6-2.6z"/>
                <path fill="#FFF" d="M106.428 98.858H79.856c-.677 0-1.226-.55-1.227-1.227V72.936c0-.678.55-1.227 1.227-1.228h26.572c.678.001 1.227.55 1.228 1.228V97.63c0 .677-.55 1.226-1.228 1.227z"/>
                <path fill="#3F3D56" d="M95.02 99.725h-3.755c-.678 0-1.227-.55-1.228-1.227V72.202c.001-.677.55-1.226 1.228-1.227h3.755c.677 0 1.226.55 1.227 1.227v26.296c0 .677-.55 1.226-1.227 1.227zM113.488 69.264c-.155 2.547-3.596 4.41-3.596 4.41s-3.19-2.267-3.034-4.814c.155-2.548 3.596-4.41 3.596-4.41s3.19 2.266 3.034 4.814z"/>
                <path fill="#3F3D56" d="M113.644 77.212c-2.548-.147-4.422-3.582-4.422-3.582s2.258-3.197 4.806-3.05c2.548.148 4.421 3.583 4.421 3.583s-2.257 3.197-4.805 3.05z"/>
                <path fill="#000" d="M107.584 74.73L107.584 84.157 98.207 71.781 105.35 71.781z" opacity=".1"/>
                <path fill="#FFF" d="M115.544 90.867c-.385 0-.747-.179-.98-.486L95.03 64.598c-.197-.26-.282-.587-.238-.91.045-.322.215-.614.475-.81l2.878-2.18c.26-.197.586-.283.909-.238.322.044.614.215.81.475L119.4 86.718c.196.26.282.587.237.91-.044.322-.215.613-.474.81l-2.878 2.18c-.213.162-.473.25-.74.249z"/>
                <path fill="#3F3D56" d="M104.02 72.077L110.23 72.077 110.23 78.287 104.02 78.287z" transform="rotate(-37.15 107.125 75.182)"/>
                <path fill="#D0CDE1" d="M81.306 52.705L87.844 52.705 87.844 59.244 81.306 59.244z" transform="rotate(-75 84.575 55.974)"/>
                <path fill="#2F2E41" d="M84.207 60.922l-6.594-1.767 1.767-6.594 6.594 1.767-1.767 6.594zm-6.24-1.97l6.036 1.617 1.618-6.037-6.037-1.617-1.617 6.036z"/>
                <path fill="#FFB8B8" d="M56.43 76.25c.35-.336.535-.811.502-1.296-.032-.486-.278-.932-.67-1.219l-2.653-21.377-3.426 1.019 3.699 20.804c-.448.707-.296 1.638.354 2.166.65.528 1.593.486 2.193-.097zM59.606 96.683L61.61 96.683 62.563 88.954 59.606 88.954z"/>
                <path fill="#2F2E41" d="M59.176 96.11h6.299v2.434h-4.088c-1.221 0-2.21-.99-2.21-2.21v-.223z" transform="rotate(-180 62.325 97.327)"/>
                <path fill="#FFB8B8" d="M45.747 93.562L47.626 94.261 51.214 87.348 48.442 86.317z"/>
                <path fill="#2F2E41" d="M44.923 93.897h6.298v2.434h-4.088c-1.22 0-2.21-.99-2.21-2.211v-.223z" transform="rotate(-159.596 48.072 95.114)"/>
                <circle cx="56.011" cy="43.019" r="3.789" fill="#FFB8B8"/>
                <path fill="#2F2E41" d="M50.084 52.744c-.119-3.49 3.55-5.911 6.635-4.277.394.208 4.454 3.657 4.607 5.8.153 2.142.459 5.661.459 5.661l4.284 31.98-9.18-.46 1.108-9.329-5.967 9.487-7.23-2.3 8.875-25.553s-3.412-5.72-3.591-11.009z"/>
                <path fill="#2F2E41" d="M50.156 53.96l.59 7.663c.012.166.15.294.317.294h2.594c.106 0 .206-.053.265-.142.06-.088.07-.2.03-.299l-3.184-7.663c-.06-.145-.216-.225-.369-.188-.152.036-.255.178-.243.334z"/>
                <path fill="#FFB8B8" d="M63.477 74.922c.31-.375.437-.868.348-1.346-.09-.479-.386-.893-.81-1.132l-5.135-20.92-3.284 1.413 6.108 20.228c-.361.755-.101 1.662.606 2.11.707.448 1.638.297 2.167-.353z"/>
                <path fill="#2F2E41" d="M55.052 49.676s-1.07 2.142 0 5.968c1.071 3.825 1.837 7.038 1.837 7.038s2.448-1.53 3.519-1.07c1.07.458-1.695-10.198-1.695-10.198s-1.671-3.574-3.66-1.738zM56.9 43.61c.05-.786 1.043-.813 1.83-.82.789-.008 1.73.02 2.176-.63.295-.429.239-1.025-.005-1.485-.243-.46-.644-.814-1.037-1.155-1.017-.88-2.065-1.752-3.286-2.314-1.22-.563-2.652-.79-3.918-.339-1.555.555-3.658 3.412-3.84 5.053-.18 1.642.475 3.315 1.581 4.542 1.106 1.226 3.637.731 5.23 1.168-.969-1.37-.33-3.86 1.22-4.5l.049.48z"/>
            </g>
        </g>
    </g>
</svg>
