<svg xmlns="http://www.w3.org/2000/svg" width="12" height="12" viewBox="0 0 12 12">
    <g fill="none" transform="matrix(-1 0 0 1 12 0)">
        <path fill="#455A64" d="M.31 11.69c-.2-.2-.31-.465-.31-.747 0-.283.11-.548.31-.748l7.73-7.731c.138-.138.36-.138.498 0l.999.998c.066.066.103.156.103.249s-.037.182-.103.248L1.805 11.69c-.206.207-.477.31-.747.31-.271 0-.542-.103-.748-.31z"/>
        <path fill="#455A64" d="M9.537 3.462c.066.066.103.156.103.249s-.037.182-.103.248L1.805 11.69c-.206.207-.477.31-.747.31-.271 0-.542-.103-.748-.31l8.727-8.727.5.5z"/>
        <circle cx="7.412" cy="4.588" r="4.588" fill="#FFC107"/>
        <path fill="#FFC107" d="M10.655 1.346c.83.83 1.345 1.977 1.345 3.242 0 2.53-2.058 4.588-4.588 4.588-1.265 0-2.412-.514-3.242-1.345l6.485-6.485z"/>
        <circle cx="7.412" cy="4.588" r="3.176" fill="#FFF"/>
        <path fill="#FFF" d="M7.412 7.764c-.875 0-1.67-.356-2.244-.931l4.489-4.49c.575.576.93 1.37.93 2.245 0 1.751-1.424 3.176-3.175 3.176z"/>
    </g>
</svg>
