<svg xmlns="http://www.w3.org/2000/svg" width="184" height="171" viewBox="0 0 184 171">
    <g fill="none" fill-rule="evenodd">
        <g fill-rule="nonzero">
            <g>
                <g transform="translate(-96 -291) translate(24 291) translate(72)">
                    <ellipse cx="91" cy="164.99" fill="#3F3D56" rx="91" ry="6"/>
                    <path fill="#3F3D56" d="M90 97.99H93V99.99H90zM96 97.99H99V99.99H96zM102 97.99H105V99.99H102zM108 97.99H111V99.99H108zM114 97.99H117V99.99H114zM120 97.99H123V99.99H120zM126 97.99H129V99.99H126zM132 97.99H135V99.99H132zM138 97.99H141V99.99H138zM145 97.99H148V99.99H145zM151 97.99H154V99.99H151zM161 99.99c0 19.883-16.342 36-36.5 36S88 119.873 88 99.99h73z"/>
                    <path fill="#3F3D56" d="M159.161 99.99L136 30.89c9.155-3.082 19.158-2.393 27.805 1.914 8.647 4.306 15.23 11.877 18.295 21.045.245.731.468 1.468.665 2.204 4.948 18.585-5.385 37.82-23.604 43.937z"/>
                    <circle cx="159.5" cy="100.49" r="4.5" fill="#3F3D56"/>
                    <path fill="#FFC107" d="M113.25 108.99c-.69 0-1.25.672-1.25 1.5 0 .829.56 1.5 1.25 1.5h21.5c.69 0 1.25-.671 1.25-1.5 0-.828-.56-1.5-1.25-1.5h-21.5z"/>
                    <path fill="#3F3D56" d="M154 165.823L149.437 165.99 133 130.909 137.159 128.99zM94 165.823L98.563 165.99 115 130.909 110.841 128.99z"/>
                    <path fill="#3F3D56" d="M105 144.99H143V147.99H105z"/>
                    <path fill="#FFC107" d="M137.055 28.99c-.335 0-.65.158-.848.426-.199.267-.259.612-.161.93l.89 2.901c.17.555.76.866 1.316.697.557-.169.871-.755.702-1.31l-.89-2.9c-.136-.442-.545-.743-1.01-.744zM86.227 99.99c-.678 0-1.227.448-1.227 1 0 .553.55 1 1.227 1h3.546c.678 0 1.227-.447 1.227-1 0-.552-.55-1-1.227-1h-3.546z"/>
                    <path fill="#FF6584" d="M113.415 91.99h-13.83c-.087 0-.171.003-.256.01-1.874.13-3.327 1.652-3.329 3.487-.002 1.834 1.448 3.359 3.322 3.493.087.008.174.01.263.01h13.83c1.98 0 3.585-1.567 3.585-3.5s-1.605-3.5-3.585-3.5z"/>
                    <path fill="#000" d="M98.433 98.99c2.556-.307 4.567-3.33 4.567-7h-.556c0 3.59-1.994 6.508-4.444 6.508v.292l.433.2zM103 98.99v-.518c2.45 0 4.444-2.908 4.444-6.482H108c0 3.86-2.243 7-5 7zM108 98.99v-.518c2.45 0 4.444-2.908 4.444-6.482H113c0 3.86-2.243 7-5 7z" opacity=".2"/>
                    <path fill="#FF6584" d="M138.415 91.99h-13.83c-.087 0-.171.003-.256.01-1.874.13-3.327 1.652-3.329 3.487-.002 1.834 1.448 3.359 3.322 3.493.087.008.174.01.263.01h13.83c1.98 0 3.585-1.567 3.585-3.5s-1.605-3.5-3.585-3.5z"/>
                    <path fill="#000" d="M122.433 98.99c2.556-.307 4.567-3.33 4.567-7h-.556c0 3.59-1.994 6.508-4.444 6.508v.292l.433.2zM128 98.99v-.518c2.45 0 4.444-2.908 4.444-6.482H133c0 3.86-2.243 7-5 7zM133 98.99v-.518c2.45 0 4.444-2.908 4.444-6.482H138c0 3.86-2.243 7-5 7z" opacity=".2"/>
                    <path fill="#E6E6E6" d="M112.548 57.361c-1.846-.973-4.128.088-5.048 1.811-1.118 2.096-.191 4.615 1.113 6.406 1.356 1.862 3.196 3.398 4.101 5.55 1.788 4.18.22 9.008-3.707 11.421-.849.525-.064 1.847.79 1.32 3.815-2.327 5.808-6.677 5.04-11.004-.19-1.097-.553-2.159-1.077-3.147-.567-1.01-1.25-1.952-2.036-2.81-1.357-1.568-3.066-3.297-3.152-5.479-.015-.283.005-.567.06-.845.041-.194.102-.384.181-.567.19-.392.472-.735.822-1.001.325-.253.71-.423 1.12-.495.343-.05.693.006 1.003.159.886.467 1.677-.851.79-1.319zM135.358 66.209c-1.604-.514-3.36-.107-4.572 1.058-.624.639-.9 1.538-.743 2.415.15.945.75 1.785 1.4 2.462 1.272 1.325 3.053 2.181 4.12 3.702.473.648.77 1.406.862 2.202.054.715-.077 1.433-.383 2.082-.796 1.612-2.376 2.708-4.042 3.413-.39.165-.475.737-.281 1.068.225.363.697.486 1.072.28 3.066-1.299 5.903-4.207 5.058-7.78-.445-1.88-1.809-3.206-3.277-4.36-.73-.532-1.419-1.118-2.061-1.751-.508-.538-1.036-1.271-.942-2 .037-.252.161-.485.352-.657.23-.21.492-.383.776-.514.702-.335 1.51-.377 2.244-.115.417.11.845-.133.964-.545.106-.415-.136-.839-.547-.96zM123.702 44.619c-.465-.39-1.052-.612-1.663-.629-.58.011-1.143.19-1.62.514-1.076.767-1.837 1.885-2.146 3.154-.788 2.963.24 6.156 1.67 8.765.722 1.319 1.563 2.571 2.29 3.887.701 1.26 1.24 2.6 1.602 3.989.74 2.85.807 5.828.194 8.706-.625 2.865-1.938 5.702-4.173 7.679-.197.193-.274.475-.202.74.072.263.282.47.552.54.269.071.556-.005.753-.198 1.984-1.754 3.31-4.161 4.11-6.636.884-2.795 1.142-5.745.758-8.647-.174-1.445-.509-2.867-1-4.24-.532-1.383-1.197-2.714-1.985-3.974-1.466-2.432-3.027-4.893-3.24-7.789-.104-1.424.078-2.908.976-4.054-.05.063.04-.045.04-.046.054-.064.11-.126.169-.187.111-.117.231-.226.358-.327-.027.021-.096.066.03-.02.063-.042.126-.082.192-.12.053-.031.108-.058.163-.087l.098-.046c-.076.032-.071.033.013.001.061-.018.363-.083.196-.062.056-.006.112-.01.168-.01.024 0 .234.01.132-.001-.12-.013.095.02.096.021.068.016.134.037.198.062-.162-.064.267.172.168.097.31.285.793.285 1.103 0 .27-.264.334-.827 0-1.082z"/>
                    <path fill="#FFB9B9" d="M65 159.461L59.36 160.99 49 112.049 60.626 110.99zM39.148 160.096L33.215 160.99 28 110.99 40 111.236zM35.45 90.057l.546 10.18c.04.757-.25 1.495-.797 2.022-.547.526-1.297.79-2.053.72-1.262-.114-2.26-1.114-2.37-2.374l-.99-11.255L22 62.957l.236-16.967 9.203.472 4.011 43.595z"/>
                    <path fill="#2F2E41" d="M40.883 114.99c-4.563-1.582-9.857-1.893-15.883-.933.855-10.112 1.35-19.503.934-27.067H57l-16.117 28z"/>
                    <path fill="#2F2E41" d="M62 114.755c-4.671 2.506-11.428 3.706-19.256 4.235L33 87.46l23.896-.47L62 114.755zM74.412 164.375l-17.305.613c-2.217.078-2.334-1.741-1.916-3.823l2.05-5.591c4.612 4.319 5.046 4.56 7.024-1.584l6.035 4.556 4.467.732c1.291.211 2.235 1.283 2.233 2.535-.002 1.38-1.145 2.511-2.588 2.562zM49.412 164.375l-17.305.613c-2.217.078-2.334-1.741-1.916-3.823l2.05-5.591c4.612 4.319 5.046 4.56 7.024-1.584l6.035 4.556 4.467.732c1.291.211 2.235 1.283 2.233 2.535-.002 1.38-1.145 2.511-2.588 2.562z"/>
                    <circle cx="53" cy="11.99" r="9" fill="#FFB9B9"/>
                    <path fill="#FFB9B9" d="M48.151 27.99L37 24.724 44.515 13.99 53 17.49z"/>
                    <path fill="#FFC107" d="M58 89.563c-11.218 2.505-23.67 1.511-34.398-1.413 2.569-14.223 1.329-29.5-1.186-41.926-1.968-9.726 3.224-17.888 11.861-21.905 1.857-.661 3.788-1.093 5.751-1.286 6.059-.533 11.39 3.978 12.022 9.984L58 89.563z"/>
                    <path fill="#FFC107" d="M29 50.99L21 50.062 23.424 37.99 29 37.99z"/>
                    <path fill="#2F2E41" d="M52.375 13.515l-1.386-.62c-.635-.284-1.362-.272-1.988.032-.625.304-1.087.87-1.262 1.548l-1.93 3.515L41 17.223l.168-7.442c.442-2.843 2.033-5.374 4.395-6.991 2.36-1.618 5.281-2.177 8.066-1.546l.132.03c2.347.535 5.394 2.272 6.985 4.095l2.964 3.398c.287.328.368.79.212 1.198-.157.408-.526.694-.957.743l-4.053.451-6.537 2.356z"/>
                    <path fill="#E6E6E6" d="M82.733 75.396l-5.298 4.575c-.16.137-.403.122-.543-.035s-.124-.396.036-.534l5.298-4.575-1.014-1.138-5.298 4.575c-.16.137-.403.122-.543-.035s-.124-.396.036-.534l5.298-4.575-1.014-1.138-5.298 4.575c-.103.09-.247.117-.377.074-.13-.044-.227-.152-.254-.285-.027-.132.02-.27.124-.358l5.298-4.575-1.268-1.423-7.487 6.466c-1.377 1.19-1.72 3.166-.825 4.739L47 100.715l2.028 2.275 22.59-19.506c1.421 1.105 3.442 1.054 4.804-.122L84 76.818l-1.267-1.422z"/>
                    <path fill="#FFB9B9" d="M57.45 90.057l.546 10.18c.04.757-.25 1.495-.797 2.022-.547.526-1.297.79-2.053.72-1.262-.114-2.26-1.114-2.37-2.374l-.99-11.255L44 62.957l.236-16.967 9.203.472 4.011 43.595z"/>
                    <path fill="#FFC107" d="M54.652 48.99c-2.81-2.678-6.517-2.776-10.652-1.647V34.698c0-3.152 2.57-5.708 5.742-5.708 1.416 0 2.772.568 3.761 1.575.99 1.007 1.529 2.368 1.496 3.775l-.347 14.65z"/>
                </g>
            </g>
        </g>
    </g>
</svg>
