<svg xmlns="http://www.w3.org/2000/svg" width="250" height="129" viewBox="0 0 250 129">
    <g fill="none" fill-rule="evenodd">
        <g fill-rule="nonzero">
            <g>
                <g transform="translate(-62 -334) translate(24 334) translate(38)">
                    <path fill="#FFC107" d="M124.455 31.602L124.448 31.645 124.431 31.772 122.593 44.956 111.344 49.083 111.167 48.999 104.869 46.008 101.612 33.512 101.389 32.654 101.457 32.628 115.39 27.393 124.447 31.597z"/>
                    <path fill="#FFC107" d="M111.167 48.999L104.869 46.008 101.389 32.654 101.457 32.628 110.534 36.458z"/>
                    <path fill="#000" d="M111.325 48.847L106.534 39.665 107.15 37.063 104.252 33.65 104.005 33.86 106.797 37.147 104.711 45.97 105.027 46.045 106.421 40.147 111.038 48.996z" opacity=".2"/>
                    <path fill="#3F3D56" d="M124.455 31.764L124.431 31.772 110.534 36.62 101.612 33.512 101.389 32.654 101.457 32.628 115.39 27.393 124.447 31.597 124.448 31.645z"/>
                    <path fill="#FFC107" d="M110.777 36.862L107.944 34.677 108.592 32.249 116.685 29.336 122.189 29.659 124.374 31.521 124.536 32.006z"/>
                    <path fill="#FFC107" d="M101.551 32.654L107.944 32.411 111.408 31.235 116.808 29.336 117.818 27.879 115.298 27.428z"/>
                    <path fill="#CCC" d="M110.909 30.625L114.442 30.625 114.442 30.949 110.909 30.949z" transform="rotate(-19.338 112.676 30.787)"/>
                    <path fill="#9F616A" d="M70.378 11.119L68.815 18.934 76.109 24.404 79.495 14.245z"/>
                    <circle cx="76.239" cy="11.25" r="7.033" fill="#9F616A"/>
                    <path fill="#2F2E41" d="M61 64.537c.033 2.269 9.915 27.522 8.543 30.81-2.163 2.211-6.815 13.979-8.803 17.118-.26 0-1.562 3.907-1.562 3.907s3.125 4.95 6.512 2.865c4.257-10.014 14.92-15.6 15.11-28.651.514 4.123 2.033 30.589 2.033 30.589s-.291.123 6.269.752c1.018-15.36 5.18-41.494-4.137-57.911-2.865-1.302-23.964.52-23.964.52z"/>
                    <path fill="#2F2E41" d="M82.833 120.66c-.305.585-2.489 5.99-.501 6.533 2.292.625 4.513-.251 4.513-.251s4.012 1.254 6.468-.34c1.145-1.146.885-2.188.338-2.943-.562-.753-1.428-1.22-2.367-1.276-1.246-.088-1.641-.32-1.784-.89-.208-.834-6.667-.834-6.667-.834zM61.4 115.939s-5.598 1.768-4.42 3.83c.766 1.279 1.883 2.31 3.22 2.97 0 0 1.167 4.813 4.408 4.813 1.62 0 2.173-.921 2.32-1.842.136-.93-.147-1.873-.77-2.576-.819-.944-.935-1.387-.633-1.891.442-.737-4.125-5.304-4.125-5.304z"/>
                    <path fill="#E6E6E6" d="M86.268 65.3s-1.043 2.083-5.21 1.3c-4.168-.779-20.577 0-20.577 0s.91-18.623-1.173-29.824c-2.084-11.2 6.12-17.582 6.12-17.582l2.606-2.606c2.605-.258 8.107 7.826 8.107 7.826 1.81.304 3.5 8 4.942 15.281.085.416.165.828.246 1.239.664 3.395 1.59 7.174 2.144 10.567.04.24.077.478.112.717.66 4.405 1.555 8.772 2.683 13.081z"/>
                    <path fill="#2F2E41" d="M68.011 6.87s-1.315-2.892 2.104-4.207c0 0 2.893-4.734 8.679-1.578 0 0 3.944 1.578 3.944 5.785 0 4.208 1.315 4.997 1.315 4.997S82.095 9.858 81.57 8.28c-.526-1.578-4.616-1.936-6.194-.358-1.578 1.578-5.523 1.315-5.523 1.315l.263 5.786s-1.315-3.419-1.84-3.419c-.527 0-1.053-4.734-.264-4.734z"/>
                    <path fill="#000" d="M83.473 51.5c-6.214-3.377-16.28-10.784-19.527-14.791-4.28-5.279.39-9.29.39-9.29 5.293-3.34 11.622 8.119 11.622 8.119l5.125 4.157c.085.416.165.828.246 1.239.664 3.395 1.59 7.174 2.144 10.567z" opacity=".2"/>
                    <path fill="#9F616A" d="M102.022 47.608s9.237 3.75 10.758-.465c1.52-4.216-7.294-4.144-7.294-4.144l-3.46.49-.004 4.12z"/>
                    <path fill="#E6E6E6" d="M63.151 25.703s-4.667 4.014-.39 9.29c4.278 5.277 23.935 16.552 23.935 16.552l12.805-3.462 3.623.663.683-6.803-5.338.521-13.55-2.885-8.642-7.011s-7.834-10.203-13.126-6.865z"/>
                    <path fill="#000" d="M80.152 74.063L80.968 93.14 78.898 74.063z" opacity=".2"/>
                    <path fill="#FFB9B9" d="M168.3 60.416l-7.411 1.717c-1.193.277-2.388-.446-2.698-1.63-.175-.669-.035-1.38.381-1.933.416-.552 1.062-.884 1.754-.9l7.159-.167.815 2.913z"/>
                    <path fill="#3F3D56" d="M167.513 61.504l-1.646-4.939 9.869-3.37-2.62-23.066c4.716.857 6.96 4.566 6.75 9.354l1.277 15.74-13.63 6.28z"/>
                    <path fill="#2F2E41" d="M174.332 25.044h16.123v-8.018c.005-2.166-.843-4.246-2.362-5.79-1.498-1.536-3.554-2.402-5.7-2.398-4.415.008-8.004 3.56-8.059 7.973l-.002.215v8.018zM197.196 119.265l-5.154-.591-6.168-41.653-12.757 41.822-5.577.169 6.337-51.454-.93-11.744 15.8-4.985c11.19 7.812 10.959 35.403 8.45 68.436z"/>
                    <circle cx="180.974" cy="17.371" r="6.083" fill="#FFB9B9"/>
                    <path fill="#FFB9B9" d="M187.057 28.355l-10.307 2.703c1.736-3.34 2.292-6.457 1.351-9.294l7.267-1.182c-.467 2.712.138 5.5 1.69 7.773z"/>
                    <path fill="#3F3D56" d="M190.521 53.11c-5.781 3.677-12.516 7.9-17.489 3.802l-2.366-11.49c-1.88-1.675-1.046-6.843 1.496-14.21.327-.947 1.072-1.69 2.02-2.017l3.92-1.347c1.737 1.46 4.584.59 7.941-1.352l3.887 1.014 1.69 12.673c-2.44 3.655-2.013 8.521-1.099 12.927z"/>
                    <path fill="#FFB9B9" d="M185.705 58.05l-7.412 1.718c-1.192.276-2.387-.447-2.697-1.63-.176-.67-.035-1.382.381-1.934.416-.552 1.062-.884 1.753-.9l7.16-.166.815 2.912z"/>
                    <path fill="#2F2E41" d="M196.3 127.229c-.865.395-1.59-2.054-2.32-1.336-2.043 2.007-6.942 1.557-6.942 1.557-.333-.107-.607-.345-.759-.66-.152-.314-.169-.677-.046-1.004.147-.393.479-.688.886-.79l2.172-.543 3.41-5.997 3.717-.47.094.153c1.453 2.342 1.827 5.198 1.027 7.836-.31.99-.73 1.022-1.239 1.254zM171.798 127.229c-.865.395-1.59-2.054-2.32-1.336-2.043 2.007-6.942 1.557-6.942 1.557-.333-.107-.607-.345-.759-.66-.152-.314-.168-.677-.046-1.004.148-.393.479-.688.886-.79l2.172-.543 3.41-5.997 3.717-.47.094.153c1.453 2.342 1.828 5.198 1.027 7.836-.31.99-.73 1.022-1.239 1.254zM188.106 12.297l-1.533 4.875-13.246-.236c.093-3.496 2.396-6.548 5.733-7.595 3.337-1.048 6.971.14 9.046 2.956z"/>
                    <path fill="#3F3D56" d="M184.918 59.138l-1.646-4.938 9.869-3.371-3.733-23.566c4.715.858 8.073 5.066 7.863 9.854l1.277 15.74-13.63 6.28z"/>
                    <path fill="#CCC" d="M161.348 45.824L151.084 48.032 148.987 37.933 152.85 32.746 156.326 32.084 160.189 36.002z"/>
                    <path fill="#E6E6E6" d="M156.602 46.265L150.421 46.265 149.578 42.105 148.656 37.546 150.035 35.56 152.685 36.388 155.554 40.362 156.274 44.412 156.324 44.7z"/>
                    <path fill="#CCC" d="M166.976 43.838L159.858 44.665 161.127 35.616 163.996 33.022 166.48 33.629 168.135 37.437z"/>
                    <path fill="#E6E6E6" d="M167.913 38.484L167.252 42.127 165.1 54.542 156.823 57.193 156.537 57.037 152.076 54.597 149.566 42.1 149.578 42.105 156.216 44.775 156.274 44.412 156.314 44.148 156.823 40.914 159.085 38.484 166.645 36.663z"/>
                    <circle cx="162.672" cy="36.333" r="1.766" fill="#E6E6E6"/>
                    <path fill="#FFF" d="M154.28 37.602L158.372 37.602 158.372 37.712 154.28 37.712z" transform="rotate(-10.097 156.326 37.657)"/>
                    <path fill="#F2F2F2" d="M156.537 57.037L152.076 54.597 149.566 42.1 149.578 42.105 148.656 37.546 150.035 35.56 152.685 36.388 155.554 40.362 156.274 44.412 156.314 44.148 156.324 44.7 156.351 46.265z"/>
                    <path fill="#CCC" d="M152.13 54.613L152.024 54.584 154.224 46.333 151.704 43.011 151.792 42.945 154.345 46.309z"/>
                    <path fill="#CCC" d="M155.018 49.527L155.128 49.527 155.128 57.592 155.018 57.592z" transform="rotate(-25.719 155.073 53.56)"/>
                    <path fill="#000" d="M167.48 41.371l-.415 2.29-.021.002-1.855 10.703-8.278 2.65-.05.023-.033-.07-4.663-2.548-.053-.014.028-.108-2.486-12.377.013.005-.275-1.358.206-.296.636-.917 2.649.828 2.87 3.973.041.237.301 1.695.121.68.256 1.44.243-1.546.087-.557.22-1.397 2.262-2.428 1.006-.242.7-.169.964-.232c-.611-.371-.938-1.074-.828-1.781.11-.707.636-1.277 1.331-1.445.695-.167 1.423.101 1.843.68.42.579.45 1.354.075 1.963l2.469-.595.609.874.026.037z" opacity=".2"/>
                    <path fill="#E6E6E6" d="M156.801 50.614L150.62 50.614 148.854 41.895 150.234 39.908 152.883 40.736 155.752 44.709z"/>
                    <path fill="#E6E6E6" d="M165.299 58.891L157.021 61.54 152.276 58.947 149.765 46.448 156.414 49.124 157.021 45.261 159.284 42.833 166.844 41.012 168.113 42.833 167.451 46.475z"/>
                    <circle cx="162.871" cy="40.681" r="1.766" fill="#E6E6E6"/>
                    <path fill="#F2F2F2" d="M156.74 61.3L152.279 58.86 149.769 46.363 149.782 46.368 148.859 41.809 150.238 39.823 152.888 40.65 155.757 44.625 156.477 48.675 156.517 48.411 156.527 48.963 156.554 50.528z"/>
                    <path fill="#CCC" d="M152.329 58.961L152.222 58.932 154.423 50.681 151.903 47.359 151.991 47.292 154.543 50.657z"/>
                    <path fill="#CCC" d="M155.216 53.875L155.327 53.875 155.327 61.94 155.216 61.94z" transform="rotate(-25.719 155.272 57.907)"/>
                    <path fill="#CCC" d="M226.042 116.623L215.778 118.831 213.681 108.732 217.544 103.545 221.02 102.883 224.883 106.801z"/>
                    <path fill="#E6E6E6" d="M221.296 117.064L215.115 117.064 214.273 112.904 213.35 108.345 214.729 106.359 217.379 107.187 220.248 111.161 220.968 115.211 221.018 115.499z"/>
                    <path fill="#CCC" d="M231.671 114.637L224.552 115.465 225.821 106.414 228.691 103.821 231.174 104.428 232.829 108.235z"/>
                    <path fill="#E6E6E6" d="M232.608 109.283L231.946 112.926 229.794 125.341 221.517 127.991 221.231 127.836 216.77 125.396 214.26 112.899 214.273 112.904 220.91 115.574 220.968 115.211 221.008 114.947 221.517 111.713 223.779 109.283 231.339 107.462z"/>
                    <circle cx="227.366" cy="107.132" r="1.766" fill="#E6E6E6"/>
                    <path fill="#FFF" d="M218.974 108.401L223.066 108.401 223.066 108.511 218.974 108.511z" transform="rotate(-10.097 221.02 108.456)"/>
                    <path fill="#F2F2F2" d="M221.231 127.836L216.77 125.396 214.26 112.899 214.273 112.904 213.35 108.345 214.729 106.359 217.379 107.187 220.248 111.161 220.968 115.211 221.008 114.947 221.018 115.499 221.045 117.064z"/>
                    <path fill="#CCC" d="M216.824 125.412L216.718 125.383 218.918 117.132 216.398 113.81 216.486 113.743 219.039 117.108z"/>
                    <path fill="#CCC" d="M219.712 120.326L219.822 120.326 219.822 128.391 219.712 128.391z" transform="rotate(-25.719 219.767 124.358)"/>
                    <path fill="#E6E6E6" d="M246.324 127.029L239.553 127.029 238.55 113.989 247.327 113.989z"/>
                    <path fill="#F2F2F2" d="M238.425 119.255H247.452V121.261H238.425z"/>
                    <path fill="#CCC" d="M249.772 114.926L248.328 114.501 248.31 113.972 241.895 112.083 241.593 112.517 240.15 112.092 239.244 113.393 249.827 116.511z"/>
                    <path fill="#FFC107" d="M37.444 110.571L37.437 110.615 37.42 110.741 35.582 123.926 24.332 128.053 24.156 127.969 17.858 124.978 14.601 112.481 14.378 111.624 14.446 111.598 28.379 106.363 37.436 110.567z"/>
                    <path fill="#FFC107" d="M24.156 127.969L17.858 124.978 14.378 111.624 14.446 111.598 23.523 115.428z"/>
                    <path fill="#000" d="M24.314 127.816L19.523 118.635 20.139 116.033 17.241 112.62 16.994 112.829 19.786 116.117 17.7 124.94 18.016 125.015 19.409 119.117 24.027 127.966z" opacity=".2"/>
                    <path fill="#3F3D56" d="M37.444 110.733L37.42 110.741 23.523 115.589 14.601 112.481 14.378 111.624 14.446 111.598 28.379 106.363 37.436 110.567 37.437 110.615z"/>
                    <path fill="#FFC107" d="M23.766 115.832L20.933 113.647 21.581 111.219 29.674 108.305 35.178 108.629 37.363 110.49 37.525 110.976z"/>
                    <path fill="#FFC107" d="M14.54 111.624L20.933 111.381 24.397 110.205 29.797 108.305 30.807 106.849 28.287 106.398z"/>
                    <path fill="#CCC" d="M23.898 109.595L27.431 109.595 27.431 109.918 23.898 109.918z" transform="rotate(-19.338 25.665 109.757)"/>
                    <path fill="#FFC107" d="M9.027 127.328L2.257 127.328 1.254 114.289 10.03 114.289z"/>
                    <path fill="#E6E6E6" d="M1.128 119.555H10.155V121.561H1.128z"/>
                    <path fill="#3F3D56" d="M10.532 113.537L9.027 113.537 8.86 113.036 2.173 113.036 2.006 113.537.502 113.537 0 115.042 11.033 115.042zM50.713 127.175H202.69299999999998V128.175H50.713z"/>
                </g>
            </g>
        </g>
    </g>
</svg>
