<svg xmlns="http://www.w3.org/2000/svg" width="228" height="178" viewBox="0 0 228 178">
    <defs>
        <linearGradient id="cvmruja2aa" x1="50%" x2="50%" y1="100%" y2="0%">
            <stop offset="0%" stop-color="gray" stop-opacity=".25"/>
            <stop offset="53.514%" stop-color="gray" stop-opacity=".12"/>
            <stop offset="100%" stop-color="gray" stop-opacity=".1"/>
        </linearGradient>
    </defs>
    <g fill="none" fill-rule="evenodd">
        <g>
            <g>
                <g transform="translate(-74 -284) translate(24 284) translate(50)">
                    <ellipse cx="83" cy="173.667" fill="#FFC107" fill-rule="nonzero" opacity=".1" rx="83" ry="3"/>
                    <path fill="#FFC107" fill-rule="nonzero" d="M61.17 6.013C66.463 1.323 74.77.366 82.333.74c23.754 1.173 45.196 12.578 63.743 25.478 6.715 4.67 13.326 9.703 17.684 16.134 8.872 13.091 6.24 31.227-6.097 42.012-4.197 3.67-9.286 6.482-14.51 8.976-9.288 4.434-19.31 7.993-29.851 9.006-7.518.722-15.128.135-22.602-.873-20.88-2.816-41.376-9.044-58.555-19.698-7.534-4.673-14.636-10.483-17.742-18.042-3.105-7.56-1.118-17.14 6.576-21.614 3.182-1.851 6.986-2.687 10.71-3.472 5.483-1.155 11.054-2.294 16.001-4.642 5.11-2.426 11.161-7.117 10.15-12.486-1.086-5.761-1.957-10.82 3.33-15.506z" opacity=".1"/>
                    <ellipse cx="206" cy="175.667" fill="#FFC107" fill-rule="nonzero" opacity=".1" rx="22" ry="2"/>
                    <path fill="url(#cvmruja2aa)" fill-rule="nonzero" d="M115.784 68.095c-.36-.696-2.266-5.022-2.266-5.022l-3.193-8.254s-2.266-3.48-2.266-4.127c0-.647-4.12-3.232-4.12-3.232s-3.348-.995-3.605-1.094c-.258-.1-4.223-1.408-4.223-1.408s-1.562-2.049-1.784-1.514v.002l-.025-.04c-.32-.594-.521-1.244-.595-1.915-.009-.06-.016-.122-.024-.184 2.088-1.412 3.344-3.761 3.355-6.278-.001-.326-.023-.652-.066-.976.028-.017.058-.033.088-.046.064-.028.048-.05.001-.074.016-.008.032-.017.049-.024.085-.037.028-.065-.055-.098l.005-.003c.117-.05-.03-.084-.148-.137l-.02-.103c.027-.066.043-.135.048-.205l.03.016c.03-.129.029-.261-.001-.39-.008.027-.017.052-.027.077.015-.236-.1-.461-.3-.589l-.018-.015.218-2.231c3.22-.152 3.786-5.618 3.051-5.922-.734-.303 0-.961 0-2.277 0-1.316-2.43-2.784-2.43-2.784s-1.016.506-2.598-2.024c-1.582-2.53-7.402-2.936-7.797-2.278-.396.658-2.995 1.519-6.385 2.48-3.39.962-2.768 4.96-2.203 5.82.465.712.738 1.531.79 2.38 0 .505 1.074 2.631 1.074 2.631-.338.737.523 4.772.778 5.919l-.011.105-.007.01c-.013.019-.024.038-.033.058-.055.119-.073.251-.053.38-.018.142.002.285.058.416.039 2.186 1.022 4.249 2.696 5.66l.012.209c.047.937.074 2.044.024 3.105-.002.054-.006.107-.01.16-.378.077-.698.329-.861.679-.32.612-2.173 1.557-2.173 1.557s-3.245.15-3.554.746c-.309.597-4.995 2.586-4.995 2.586s-2.472 1.442-2.112 3.082c.188.858-.34 2.19-.888 3.267-1.146-.434-2.34-.73-3.555-.885l2.625 2.506-.087.134-1.494 5.27s-.515 1.84-1.03 2.288c-.515.448.464 4.525.464 4.525s-.567 2.884-1.03 3.63c-.464.745.72 2.585.72 2.585l2.37 5.37 6.283 1.591 1.095.233-.065.384c-.303 1.71-.7 3.284-1.185 3.71-1.184 1.043-1.133 5.717-1.133 5.717l.052 6.613s.412 8.155.206 8.453c-.13.188.13.496.819.772-.02.122-.039.247-.057.374-.194 1.352-.28 2.896.165 3.578.193.369.299.777.309 1.193 0 .647.978 1.99.978 1.99s-.772 5.518.515 7.408c1.288 1.89 2.37 5.32 1.751 6.116 0 0-1.081 2.337-.566 3.38.515 1.045 0 1.642-.67 1.89-.67.249-.612 2.287-.612 2.287l1.23 9.696s.67 1.99.103 2.685c-.566.696-.566 4.177.31 5.37.875 1.194-1.237 3.381-1.237 3.381s-1.287 1.84.773 2.437c0 0 .412.1-.36.895-.773.795-.928 1.79-.413 2.138.107.064.219.12.334.165-.019.118-.04.24-.064.37-.198 1.038-.57 2.39-1.248 3.045-1.314 1.343-2.447 2.85-3.373 4.483-.706 1.336-1.015 2.587-.232 3.174 1.854 1.392 4.223 1.84 5.613 1.293 1.39-.547 3.348-2.238 3.348-2.238l.463-1.939s-.309-1.193 1.236-1.64c1.545-.448 2.987-2.04 2.987-2.04v-2.577c.374-.213.735-.448 1.082-.704 0 0 .72-2.536 0-3.38-.721-.846-.979-1.145-.052-1.692.927-.546 1.053-1.74.373-2.784-.682-1.044-1.763-2.586-.836-4.773.927-2.188 1.267-8.9 1.267-8.9s-.433-4.575 0-5.62c.432-1.043-.495-3.132-.495-3.132s.31-2.585.876-3.779c.566-1.193 1.03-7.508 1.03-7.508s1.03-2.685 1.03-4.425c0-1.74-1.597-5.917.772-7.011 0 0 1.03.895.618 4.475 0 0 1.185 4.177 1.185 5.47 0 1.292.875 5.966.875 5.966s.103 1.492.464 2.039c.36.547 0 2.038 0 2.038s1.339 1.244.978 2.04c-.36.795.062 2.589.062 2.589l-.32 11.133s-.926 4.774 1.237 7.658c0 0-.773 4.226-1.236 4.525-.464.298 1.7 2.883 1.7 2.883s-.6 1.675.617 1.758v2.767c.423.745 1.003 1.39 1.7 1.89 1.133.795.67 3.53.67 3.53s1.441 3.48 5.252 2.735c3.811-.746 4.326-1.094 4.12-2.337-.074-.454-.239-1.263-.476-2.182-.41-1.597-1.038-3.524-1.79-4.475-1.184-1.498-2.163-4.63-2.163-4.63s-.463-1.044 0-1.393c.464-.348.258-.994.258-.994s.45-1.293.045-2.088c-.406-.796.779-2.437.779-2.437l-.36-7.657.36-11.138s-1.597-1.84-.927-2.933c.67-1.094-.773-2.636-.773-2.636s-.154-.05.258-1.293c.246-.732.21-1.53-.103-2.237 0 0-.876-3.083.67-5.42 0 0 .669-3.083.875-4.674.142-1.106 1.032-5.236 1.561-7.653l.086-.392c.763.041 1.34.09 1.34.09s-1.185-8.205 0-9.895c1.184-1.69-.927-14.618-.927-14.618s-.505-2.26-.816-4.565c-.018-.131-.034-.263-.05-.394.956-.076 1.916-.097 2.874-.063 2.472.149 4.893-.796 4.944-1.74.052-.945 1.39-4.675 1.597-5.52.206-.845.36-3.73 0-4.425z"/>
                    <path fill="#4C495A" fill-rule="nonzero" d="M86 163.588v4.76s-1.431 1.637-2.964 2.098c-1.533.46-1.227 1.688-1.227 1.688l-.46 1.996s-1.942 1.74-3.322 2.303c-1.38.563-3.73.103-5.57-1.33-.777-.604-.47-1.892.23-3.267.914-1.676 2.039-3.226 3.347-4.615.673-.673 1.043-2.065 1.239-3.134.145-.8.192-1.42.192-1.42l8.535.92z"/>
                    <path fill="#000" fill-rule="nonzero" d="M86 167.667v1.14s-1.431 1.548-2.964 1.983c-1.533.435-1.227 1.595-1.227 1.595l-.46 1.886s-1.942 1.643-3.322 2.175c-1.38.532-3.73.097-5.57-1.257-.777-.57-.47-1.787.23-3.086-.032 1.365.395 2.899 2.478 2.845 2.249-.068 4.415-.813 6.184-2.128 0 0-.05-3.19 2.3-3.916.86-.268 1.657-.688 2.351-1.237z" opacity=".1"/>
                    <path fill="#4C495A" fill-rule="nonzero" d="M104.117 175.562c-3.559.745-4.905-2.732-4.905-2.732s.433-2.732-.625-3.527c-.654-.504-1.196-1.148-1.587-1.887v-4.57l4.328-3.18 2.343 2.143.157.143s.914 3.129 2.02 4.625c.702.95 1.289 2.875 1.672 4.47.22.919.375 1.727.444 2.18.192 1.242-.289 1.59-3.847 2.335z"/>
                    <path fill="#000" fill-rule="nonzero" d="M104.117 175.562c-3.559.744-4.905-2.726-4.905-2.726s.433-2.726-.625-3.52c-.654-.502-1.196-1.145-1.587-1.883v-1.766c.687.747 1.981 2.194 2.26 2.807.385.843.433 3.916 2.212 4.461 1.78.545 5.242 1.041 5.53-.347.12-.527.294-1.04.518-1.53.22.916.375 1.723.444 2.175.192 1.239-.289 1.586-3.847 2.33zM77.176 162.667l7.824.866v2.365c-.883.537-2.148 1.107-2.858.522-1.05-.862-4.17-1.958-5.142-2.418.133-.752.176-1.335.176-1.335zM103 162.158c-1.134-.369-3.155 1.246-5.817 2.261-.37.164-.774.248-1.183.248v-2.047l4.437-2.953 2.401 1.99c.037.171.091.34.162.501z" opacity=".1"/>
                    <path fill="#5F5D7E" fill-rule="nonzero" d="M106 107.465l-.383 1.801c-.512 2.426-1.373 6.572-1.51 7.682-.2 1.598-.847 4.692-.847 4.692-1.495 2.346-.648 5.44-.648 5.44.303.713.338 1.51.1 2.247-.399 1.247-.25 1.297-.25 1.297s1.396 1.548.748 2.646c-.648 1.098.897 2.944.897 2.944l-.35 11.18.35 7.687s-1.146 1.647-.754 2.446c.393.798-.043 2.096-.043 2.096s.199.649-.25.998c-.448.35 0 1.398 0 1.398-1.146-.4-3.188 1.347-5.879 2.445-2.69 1.098-1.793-1.497-1.793-1.497s-2.093-2.595-1.645-2.895c.449-.3 1.196-4.542 1.196-4.542-2.092-2.895-1.196-7.686-1.196-7.686l.31-11.176s-.41-1.801-.06-2.6c.348-.798-.947-2.046-.947-2.046s.349-1.498 0-2.047c-.349-.549-.449-2.046-.449-2.046s-.847-4.692-.847-5.99c0-1.297-1.145-5.49-1.145-5.49.398-3.593-.598-4.492-.598-4.492-2.292 1.098-.748 5.29-.748 7.038 0 1.747-.996 4.442-.996 4.442s-.449 6.339-.997 7.537c-.548 1.198-.847 3.793-.847 3.793s.897 2.096.479 3.144c-.419 1.049 0 5.64 0 5.64s-.33 6.738-1.226 8.935c-.897 2.196.15 3.743.81 4.791.657 1.048.535 2.246-.362 2.795-.896.55-.647.849.05 1.697.698.849 0 3.394 0 3.394s-2.84 2.246-4.085 1.248c-1.246-.998-5.232-2.296-5.73-2.645-.498-.35-.349-1.348.399-2.147.747-.798.348-.898.348-.898-1.993-.599-.747-2.446-.747-2.446s2.043-2.196 1.196-3.394c-.847-1.198-.847-4.691-.3-5.39.549-.699-.099-2.695-.099-2.695l-1.19-9.733s-.055-2.047.592-2.296c.648-.25 1.146-.849.648-1.897-.498-1.048.548-3.394.548-3.394.598-.798-.448-4.242-1.694-6.139-1.245-1.896-.498-7.437-.498-7.437s-.947-1.347-.947-1.996c-.01-.417-.111-.826-.299-1.198-.43-.685-.346-2.234-.16-3.592.182-1.313.46-2.447.46-2.447l31.388.798z"/>
                    <path fill="#FDC2CC" fill-rule="nonzero" d="M97 51.332l-10.072 2.335s-4.96-4.162-3.733-6.395c.422-.767.608-2.077.671-3.461.05-1.082.023-2.213-.025-3.17-.071-1.382-.186-2.403-.186-2.403s10.328-5.786 9.97 0c-.072.964-.05 1.932.068 2.89.073.683.273 1.346.591 1.956.552.976 1.233.99 1.233.99L97 51.333z"/>
                    <path fill="#000" fill-rule="nonzero" d="M94 41.18c-2.986 2.153-7.056 1.95-9.815-.492-.07-1.396-.185-2.426-.185-2.426s10.29-5.84 9.933 0c-.073.972-.05 1.95.067 2.917z" opacity=".1"/>
                    <circle cx="88.5" cy="35.167" r="7.5" fill="#FDC2CC" fill-rule="nonzero"/>
                    <path fill="#000" fill-rule="nonzero" d="M97 51.46l-10.072 2.207s-4.96-3.933-3.733-6.043c.422-.725.608-1.962.671-3.27.222 1.137.874 2.162 1.835 2.886 2.3 1.44 1.942 3.214 1.942 3.214l4.142-.144c-.256-1.583 1.278-2.446 1.79-2.638.51-.192.255-1.055.255-1.055l.454-2.95c.552.922 1.233.936 1.233.936L97 51.46zM106 107.375s-.158.653-.384 1.599c-1.09-.052-2.53-.089-3.17.04-1.102.222-5.507.31-5.507.31l-10.914.343v-.298c-1.255.009-2.509.083-3.755.221-1.852.222-4.756-.088-6.608-.354-.57-.072-1.128-.206-1.662-.397.182-1.166.46-2.172.46-2.172l31.54.708z" opacity=".1"/>
                    <path fill="#FFC107" fill-rule="nonzero" d="M106.04 76.244c-.158.92-.042 2.444.159 3.95.302 2.282.794 4.52.794 4.52s2.055 12.803.902 14.478c-1.153 1.674 0 9.799 0 9.799s-3.459-.295-4.561-.05c-1.103.247-5.514.346-5.514.346l-10.926.38v-.331c-1.257.01-2.512.092-3.76.246-1.854.246-4.761-.099-6.616-.394-1.854-.295-2.606-.886-2.406-1.182.201-.295-.2-8.371-.2-8.371l-.05-6.55s-.05-4.629 1.103-5.663c.47-.421.858-1.98 1.152-3.673.423-2.453.652-5.19.652-5.19L69.15 58.515l-.15-.394s2.205-3.348 1.855-4.973c-.351-1.625 2.055-3.053 2.055-3.053s4.56-1.97 4.861-2.561c.301-.591 3.459-.739 3.459-.739s1.804-.935 2.115-1.542c.153-.344.466-.594.84-.672.212 1.183.854 2.25 1.806 3.002 2.256 1.477 1.905 3.3 1.905 3.3l4.06-.148c-.25-1.625 1.253-2.512 1.754-2.709.501-.197.25-1.083.25-1.083l.47-3.19c.217-.529 1.736 1.5 1.736 1.5s3.86 1.296 4.11 1.394c.25.099 3.509 1.084 3.509 1.084s4.01 2.56 4.01 3.2c0 .64 2.205 4.088 2.205 4.088l-.074.39c-.51 2.714-3.519 18.716-3.886 20.834z"/>
                    <path fill="#FDC2CC" fill-rule="nonzero" d="M89.98 67.672s-8.47-2.374-9.302-2.942c-.832-.567-5.728 2.736.245 7.226 0 0 7.304 1.6 9.258 0 1.954-1.6-.2-4.284-.2-4.284z"/>
                    <path fill="#000" fill-rule="nonzero" d="M108.522 54.667l1.037.05 3.061 8.3s1.827 4.35 2.173 5.05c.345.7.197 3.6 0 4.45-.198.85-1.482 4.6-1.531 5.55-.05.95-2.37 1.9-4.74 1.75-2.37-.15-7.9.6-7.9.6s-5.906-.625-9.53 1.25c0 0-2.32-4.85-2.074-13.9 0 0 4.099-.25 5.135.15 1.037.4 6.074 1.55 6.716.95.642-.6 3.555 1.1 3.555 1.1.3-.667.3-1.433 0-2.1-.494-1.2-1.333-4.95-.247-6.15 1.086-1.2 4.345-7.05 4.345-7.05z" opacity=".1"/>
                    <path fill="#000" fill-rule="nonzero" d="M106.236 79.877c-2.512.168-5.322.54-5.322.54s-6.054-.626-9.77 1.25c0 0-2.378-4.85-2.125-13.9 0 0 4.2-.25 5.264.15 1.063.4 6.226 1.55 6.884.95.658-.6 3.644 1.1 3.644 1.1.307-.667.307-1.433 0-2.1-.506-1.2-1.367-4.95-.253-6.15 1.113-1.2 4.454-7.05 4.454-7.05l.988.046c-.514 2.756-3.553 19.004-3.924 21.154-.16.934-.042 2.482.16 4.01z" opacity=".1"/>
                    <path fill="#FFC107" fill-rule="nonzero" d="M108.522 54.667l1.037.05 3.061 8.3s1.827 4.35 2.173 5.05c.345.7.197 3.6 0 4.45-.198.85-1.482 4.6-1.531 5.55-.05.95-2.37 1.9-4.74 1.75-2.37-.15-7.9.6-7.9.6s-5.906-.625-9.53 1.25c0 0-2.32-4.85-2.074-13.9 0 0 4.099-.25 5.135.15 1.037.4 6.074 1.55 6.716.95.642-.6 3.555 1.1 3.555 1.1.3-.667.3-1.433 0-2.1-.494-1.2-1.333-4.95-.247-6.15 1.086-1.2 4.345-7.05 4.345-7.05z"/>
                    <path fill="#DFE6F5" fill-rule="nonzero" d="M101.265 61.295L102.723 61.294 102.712 74.403 101.254 74.405z" transform="rotate(-148.235 101.988 67.85)"/>
                    <ellipse cx="107.102" cy="59.606" fill="#DFE6F5" fill-rule="nonzero" rx="4.195" ry="2.945" transform="rotate(-58.235 107.102 59.606)"/>
                    <ellipse cx="107.102" cy="59.606" fill="#000" fill-rule="nonzero" opacity=".1" rx="3.011" ry="2.114" transform="rotate(-58.235 107.102 59.606)"/>
                    <path fill="#53526B" fill-rule="nonzero" d="M96.425 71.569L97.883 71.568 97.876 79.725 96.419 79.726z" transform="rotate(-148.235 97.15 75.647)"/>
                    <path fill="#FDC2CC" fill-rule="nonzero" d="M87.204 79.667l2.987-.856s14.74.403 9.794-5.838c0 0-2.595-2.567-8.031-.504C86.518 74.533 85 74.785 85 74.785l2.204 4.882z"/>
                    <circle cx="84.5" cy="53.167" r="1" fill="#000" fill-rule="nonzero" opacity=".1"/>
                    <circle cx="95.5" cy="52.167" r="1" fill="#000" fill-rule="nonzero" opacity=".1"/>
                    <circle cx="84.5" cy="52.167" r="1" fill="#FFF" fill-rule="nonzero"/>
                    <circle cx="85.5" cy="61.167" r="1" fill="#000" fill-rule="nonzero" opacity=".1"/>
                    <circle cx="95.5" cy="60.167" r="1" fill="#000" fill-rule="nonzero" opacity=".1"/>
                    <circle cx="85.5" cy="61.167" r="1" fill="#FFF" fill-rule="nonzero"/>
                    <circle cx="95.5" cy="89.167" r="1" fill="#000" fill-rule="nonzero" opacity=".1"/>
                    <circle cx="87.5" cy="89.167" r="1" fill="#000" fill-rule="nonzero" opacity=".1"/>
                    <circle cx="95.5" cy="89.167" r="1" fill="#FFF" fill-rule="nonzero"/>
                    <circle cx="87.5" cy="99.167" r="1" fill="#000" fill-rule="nonzero" opacity=".1"/>
                    <circle cx="95.5" cy="98.167" r="1" fill="#000" fill-rule="nonzero" opacity=".1"/>
                    <circle cx="87.5" cy="99.167" r="1" fill="#FFF" fill-rule="nonzero"/>
                    <circle cx="87.5" cy="89.167" r="1" fill="#FFF" fill-rule="nonzero"/>
                    <circle cx="95.5" cy="98.167" r="1" fill="#FFF" fill-rule="nonzero"/>
                    <circle cx="95.5" cy="52.167" r="1" fill="#FFF" fill-rule="nonzero"/>
                    <circle cx="95.5" cy="60.167" r="1" fill="#FFF" fill-rule="nonzero"/>
                    <path fill="#000" fill-rule="nonzero" d="M95.796 80.667s.1 13.572.398 16c0 0 .108-15.36-.398-16zM99.007 87.667c-.191 0 3.8 15.815 3.985 16.949.185 1.133-2.873-16.95-3.985-16.95zM102 84.667c0 .147 2.531 8.543 3.797 8.985 1.266.441-3.797-8.985-3.797-8.985zM111 68.667s-4.854.198-4.997.839c-.143.64 4.997-.84 4.997-.84zM103 132.667s-3.47 1.874-2.946 1.995c.522.12 2.946-1.995 2.946-1.995zM95.005 130.72c-.116-.41 1.995 1.663 1.995 1.92 0 .255-1.833-1.344-1.995-1.92zM99 135.672s2.795-.113 2.991.743c.196.855-2.991-.743-2.991-.743zM78 136.167s2.766-1.125 2.989 0c.223 1.125-2.989 0-2.989 0zM78.969 154.667s.252 2.38-.68 2.939c-.93.56.68-2.94.68-2.94zM79 160.151c.966.145 6.049-1.16 6 0-.05 1.16-6 0-6 0zM102 156.695s-1.259-.287-.952.972l.952-.972zM70.088 57.66h-.958l-1.462 5.265s-.504 1.837-1.008 2.284c-.504.447.454 4.52.454 4.52s-.555 2.88-1.009 3.625c-.453.745.706 2.583.706 2.583L69.13 81.3l6.15 1.589s10.838 2.334 11.342 2.682c.505.347.958-.15 1.311-3.377.353-3.229 1.31-9.486 2.067-9.784 0 0-6.05.645-6.553.546-.505-.1-2.924.05-2.924.05s-3.176-.199-3.68.099c-.504.298.655-1.443.655-1.443.212-.796.212-1.634 0-2.43-.353-1.342-.554-16.54-7.41-11.573z" opacity=".1"/>
                    <path fill="#000" fill-rule="nonzero" d="M89 73.41c-.73.299-1.655 6.556-1.995 9.785-.34 3.228-.779 3.724-1.265 3.377-.395-.282-7.37-1.876-9.976-2.464.41-2.473.633-5.234.633-5.234L69 58.66h.779c6.618-4.966 6.812 10.231 7.153 11.572.205.797.205 1.635 0 2.432 0 0-1.12 1.74-.633 1.442.487-.298 3.553-.1 3.553-.1s2.335-.148 2.822-.049c.487.1 6.326-.546 6.326-.546z" opacity=".1"/>
                    <path fill="#FFC107" fill-rule="nonzero" d="M70.088 57.66h-.958l-1.462 5.265s-.504 1.837-1.008 2.284c-.504.447.454 4.52.454 4.52s-.555 2.88-1.009 3.625c-.453.745.706 2.583.706 2.583L69.13 81.3l6.15 1.589s10.838 2.334 11.342 2.682c.505.347.958-.15 1.311-3.377.353-3.229 1.31-9.486 2.067-9.784 0 0-6.05.645-6.553.546-.505-.1-2.924.05-2.924.05s-3.176-.199-3.68.099c-.504.298.655-1.442.655-1.442.212-.797.212-1.635 0-2.432-.353-1.34-.554-16.538-7.41-11.572z"/>
                    <path fill="#000" fill-rule="nonzero" d="M73 75.667s-2.503 5.593-2.958 4.948C69.587 79.969 73 75.667 73 75.667zM70 72.667s-3.052 2.324-1.616 2.93c1.436.606 1.616-2.93 1.616-2.93zM72 70.667c.213.045 3.946.682 4 .96.053.276-4-.96-4-.96zM96.958 33.987c-.23.075-.374.287-.35.513-.21.173-.503-.03-.673-.25-.172-.219-.366-.489-.627-.458-.123.037-.243.083-.358.14-.41.122-.756-.328-.986-.722l-1.199-2.072c-.8.435-1.748-.02-2.543-.47-.795-.45-1.741-.908-2.545-.474-1.178.636-1.22 2.755-2.442 3.278-.394.169-.85.132-1.215.364-.36.23-.556.672-.717 1.095-.06.24-.201.458-.402.618-.128.063-.27.095-.414.094-.362.058-.734.009-1.066-.14-.357-.21-.51-.624-.368-.995.01-.02.02-.038.032-.056.132-.148.25-.306.353-.473.123-.304-.053-.658-.014-.987.063-.563.7-.86.809-1.413.045-.217-.002-.448.04-.667.007-.028.015-.056.026-.084l-.375.241c.42-.457.63-1.093.938-1.648.69-1.229 1.888-2.14 3.315-2.522 1.337-.363 2.748-.264 4.097.045 1.282.298 2.51.77 3.645 1.403.405.203.766.477 1.061.806.248.341.459.705.63 1.085.397.77 1.483 1.482.618 1.59-.719.09-.063.56.314.878.085.063.158.138.217.222.127.247.11.536-.045.768-.145.172.445.207.244.291z" opacity=".1"/>
                    <path fill="#865A61" fill-rule="nonzero" d="M96.958 33.987c-.23.075-.374.287-.35.513-.21.173-.503-.03-.673-.25-.172-.219-.366-.489-.627-.458-.123.037-.243.083-.358.14-.41.122-.756-.328-.986-.722l-1.199-2.072c-.8.435-1.748-.02-2.543-.47-.795-.45-1.741-.908-2.545-.474-1.178.636-1.22 2.755-2.442 3.278-.394.169-.85.132-1.215.364-.36.23-.556.672-.717 1.095-.06.24-.201.458-.402.618-.128.063-.27.095-.414.094-.362.058-.734.009-1.066-.14-.357-.21-.51-.624-.368-.995.01-.02.02-.038.032-.056.132-.148.25-.306.353-.473.123-.304-.053-.658-.014-.987.063-.563.7-.86.809-1.413.045-.217-.002-.448.04-.667.007-.028.015-.056.026-.084l-.375.241c.42-.457.63-1.093.938-1.648.69-1.229 1.888-2.14 3.315-2.522 1.337-.363 2.748-.264 4.097.045 1.282.298 2.51.77 3.645 1.403.405.203.766.477 1.061.806.248.341.459.705.63 1.085.397.77 1.483 1.482.618 1.59-.719.09-.063.56.314.878.085.063.158.138.217.222.127.247.11.536-.045.768-.145.172.445.207.244.291z"/>
                    <path fill="#000" fill-rule="nonzero" d="M95.988 32.587l-.08.79s-8.337-9.98-14.823 1.29L81 34.299c.127-.146.242-.3.342-.464.119-.298-.052-.645-.014-.968.061-.552.68-.843.785-1.385.043-.212-.002-.44.04-.653.005-.028.013-.056.023-.083l-.363.237c.407-.449.612-1.072.91-1.616.669-1.205 1.83-2.098 3.215-2.472 1.295-.357 2.664-.26 3.972.043 1.243.293 2.434.756 3.535 1.376.393.199.742.467 1.029.79.24.335.445.691.61 1.064.386.754 1.439 1.453.6 1.558-.697.088-.061.55.304.861z" opacity=".1"/>
                    <g fill="#000" fill-rule="nonzero" opacity=".1">
                        <path d="M15.47 4.685c-.083.098-.119.232-.095.362-.204.188-.49-.034-.657-.274-.169-.239-.36-.534-.614-.5-.12.04-.238.091-.35.153-.402.133-.74-.358-.965-.789-.39-.755-.782-1.51-1.173-2.263-.784.475-1.71-.023-2.488-.515C8.35.368 7.424-.132 6.638.343c-1.153.694-1.195 3.01-2.39 3.58-.385.185-.832.145-1.189.398-.352.251-.543.734-.701 1.196-.059.264-.197.5-.393.676-.125.068-.264.103-.405.102-.354.063-.719.01-1.043-.152-.194-.135-.333-.34-.39-.575-.082.384.074.78.39.993.324.162.689.216 1.043.153.14 0 .28-.035.405-.103.196-.175.334-.412.393-.675.158-.463.349-.946.701-1.197.357-.253.804-.213 1.19-.397 1.194-.571 1.236-2.887 2.39-3.58.785-.476 1.711.024 2.49.516.777.491 1.703.989 2.487.514l1.173 2.263c.225.431.563.923.964.789.113-.061.23-.113.351-.153.255-.033.445.262.614.5.166.24.453.462.657.274-.023-.247.119-.478.343-.56.157-.074-.176-.113-.247-.22zM14.815 2.595c.06-.025.125-.042.19-.05.373-.051.374-.232.226-.49-.07.04-.147.065-.226.072-.403.056-.365.249-.19.468zM15.583 4.347c.028-.135.027-.274-.002-.409-.018.083-.052.162-.101.23-.063.083.014.137.103.18zM.53 3.745c-.003.023-.008.047-.01.072-.009.188.004.377.038.562.024-.212.015-.426-.027-.634zM1.345 1.193c-.094.186-.207.362-.336.524l.323-.232c-.001-.098.003-.195.013-.292z" transform="translate(81 29.667)"/>
                    </g>
                    <path fill="#FFC107" fill-rule="nonzero" d="M80.994 34.667s-1.178-5.415-.803-6.283c0 0-1.018-2.146-1.018-2.657-.05-.852-.308-1.678-.75-2.4-.536-.869-1.126-4.905 2.09-5.875 3.214-.97 5.678-1.84 6.053-2.503.376-.664 5.894-.256 7.394 2.299 1.5 2.554 2.465 2.043 2.465 2.043s2.304 1.481 2.304 2.81c0 1.328-.697 1.992 0 2.298.696.307.16 5.823-2.893 5.977l-.268 2.911s-8.198-10.676-14.574 1.38z"/>
                    <path fill="#000" fill-rule="nonzero" d="M81.248 18.667s-.909 4.493.752 6l-.752-6zM85 17.667s-1.258 4.193-.952 5l.952-5zM87 16.667s-1.538 5.554-.8 6l.8-6zM89 17.667s-1.444 3.514-.862 4l.862-4zM91 17.667s-1.216 3.397-.966 4l.966-4zM96 21.667s-2.431.456-1.933 1l1.933-1zM97 24.667s-1.194.654-.973 1l.973-1zM80 27.976s11.165-3.867 16 1.69c0 0-5.868-4.254-16-1.69z" opacity=".1"/>
                    <path fill="#53526B" fill-rule="nonzero" d="M76 65.261L77.568 63.667 82 68.072 80.432 69.667 76.356 65.615z"/>
                    <path fill="#DFE6F5" fill-rule="nonzero" d="M66 55.667s6.733.558 13 7.427l-2.612 2.573-10.388-10z"/>
                    <path fill="#FDC2CC" fill-rule="nonzero" d="M86.216 67.672S79.7 65.298 79.06 64.73c-.64-.567-4.406 2.736.188 7.226 0 0 5.619 1.6 7.122 0 1.503-1.6-.154-4.284-.154-4.284z"/>
                    <path fill="#535461" fill-rule="nonzero" d="M206 113.667H207V143.667H206z"/>
                    <path fill="#65617D" fill-rule="nonzero" d="M215.996 142.697l-.084 1.358-.117 1.916-.049.8-.117 1.918-.05.799-.118 1.916-1.338 21.799c-.119 1.947-1.717 3.464-3.648 3.464h-6.95c-1.93 0-3.528-1.518-3.646-3.464l-1.34-21.799-.117-1.916-.05-.8-.119-1.918-.048-.8-.117-1.915-.084-1.358c-.033-.527.152-1.044.51-1.428.358-.385.858-.602 1.38-.602h14.214c.522 0 1.021.218 1.379.602.358.385.542.901.51 1.428z"/>
                    <path fill="#9D9CB5" fill-rule="nonzero" d="M216 144.667L215.882 146.667 198.118 146.667 198 144.667zM215 146.667L214.886 148.667 198.116 148.667 198 146.667zM215 149.667L214.884 151.667 198.116 151.667 198 149.667z"/>
                    <path fill="#FFC107" fill-rule="nonzero" d="M196.049 124.505C203.78 130.028 207 138.667 207 138.667s-9.317-.316-17.049-5.839C182.22 127.306 179 118.667 179 118.667s9.317.315 17.049 5.838z"/>
                    <path stroke="#535461" stroke-width="2" d="M179 118.667s9.67 5.3 12.773 9.688c3.102 4.388 15.227 10.312 15.227 10.312"/>
                    <path fill="#FFC107" fill-rule="nonzero" d="M200.133 112.878c4.142 3.037 5.867 7.789 5.867 7.789s-4.991-.174-9.133-3.211c-4.142-3.038-5.867-7.79-5.867-7.79s4.991.174 9.133 3.212z"/>
                    <path stroke="#535461" stroke-width="2" d="M191 109.667s5.18 2.915 6.842 5.328c1.662 2.414 8.158 5.672 8.158 5.672"/>
                    <path fill="#FFC107" fill-rule="nonzero" d="M212.687 120.565c-4.694 5.246-5.687 12.102-5.687 12.102s6.618-1.652 11.313-6.898c4.694-5.247 5.687-12.102 5.687-12.102s-6.618 1.65-11.313 6.898z"/>
                    <path stroke="#535461" stroke-width="2" d="M224 113.667s-6.115 5.378-7.669 9.083c-1.554 3.706-9.331 9.917-9.331 9.917"/>
                </g>
            </g>
        </g>
    </g>
</svg>
