<svg xmlns="http://www.w3.org/2000/svg" width="18" height="16" viewBox="0 0 18 16">
    <g fill="none" fill-rule="evenodd">
        <g fill-rule="nonzero">
            <g>
                <g>
                    <path fill="#455A64" d="M.974 4.567h9.81V2.619H.974c-.538 0-.974.436-.974.974s.436.974.974.974zM.974 8.473h9.81V6.526H.974C.436 6.526 0 6.962 0 7.5s.436.973.974.973zM.974 10.433c-.538 0-.974.436-.974.974s.436.973.974.973h6.815c-.077-.237-.117-.487-.117-.743 0-.43.112-.842.323-1.204H.974z" transform="translate(-341 -50) translate(328 37) translate(13 13)"/>
                    <path fill="#FFC107" d="M17.167 10.766c-.481-.48-1.26-.48-1.742 0l-1.01 1.011V1.254c0-.68-.552-1.23-1.232-1.23-.68 0-1.23.55-1.23 1.23v10.523l-1.012-1.01c-.48-.482-1.26-.482-1.74 0-.481.48-.481 1.26 0 1.74l3.112 3.113c.48.48 1.26.481 1.741 0l3.113-3.113c.48-.48.48-1.26 0-1.74z" transform="translate(-341 -50) translate(328 37) translate(13 13)"/>
                </g>
            </g>
        </g>
    </g>
</svg>
