<svg xmlns="http://www.w3.org/2000/svg" width="206" height="174" viewBox="0 0 206 174">
    <defs>
        <linearGradient id="xtu7sf5g7a" x1="50%" x2="50%" y1="100.004%" y2="0%">
            <stop offset="0%" stop-color="gray" stop-opacity=".25"/>
            <stop offset="54%" stop-color="gray" stop-opacity=".12"/>
            <stop offset="100%" stop-color="gray" stop-opacity=".1"/>
        </linearGradient>
        <linearGradient id="dh2pj8vdhb" x1="36.989%" x2="63.933%" y1="103.528%" y2="4.651%">
            <stop offset="0%" stop-color="gray" stop-opacity=".25"/>
            <stop offset="54%" stop-color="gray" stop-opacity=".12"/>
            <stop offset="100%" stop-color="gray" stop-opacity=".1"/>
        </linearGradient>
        <linearGradient id="uw9oxd7w4c" x1="37.067%" x2="64.011%" y1="102.99%" y2="4.113%">
            <stop offset="0%" stop-color="gray" stop-opacity=".25"/>
            <stop offset="54%" stop-color="gray" stop-opacity=".12"/>
            <stop offset="100%" stop-color="gray" stop-opacity=".1"/>
        </linearGradient>
        <linearGradient id="oybk558lgd" x1="50%" x2="50%" y1="100%" y2="0%">
            <stop offset="0%" stop-color="gray" stop-opacity=".25"/>
            <stop offset="54%" stop-color="gray" stop-opacity=".12"/>
            <stop offset="100%" stop-color="gray" stop-opacity=".1"/>
        </linearGradient>
    </defs>
    <g fill="none" fill-rule="evenodd">
        <g fill-rule="nonzero">
            <g transform="translate(-88 -464) translate(88 464)">
                <g fill="url(#xtu7sf5g7a)" opacity=".8" transform="translate(67.857 4.286)">
                    <ellipse cx="35" cy="27.217" rx="34.871" ry="27.014"/>
                </g>
                <ellipse cx="102.857" cy="31.502" fill="#FFC107" rx="34.098" ry="26.414"/>
                <path fill="#FFF" d="M74.271 34.438c0-14.588 15.265-26.414 34.096-26.414 5.846-.032 11.634 1.162 16.99 3.507-5.993-4.048-13.833-6.507-22.414-6.507-18.831 0-34.098 11.826-34.098 26.414 0 9.795 6.884 18.345 17.11 22.907-7.16-4.843-11.684-11.964-11.684-19.907z" opacity=".1"/>
                <path fill="#FFC107" d="M102.857 42.119L140.657 107.59 178.457 173.06 102.857 173.06 27.257 173.06 65.057 107.59z" opacity=".2"/>
                <g fill="url(#dh2pj8vdhb)" opacity=".3" transform="translate(81.19 106.429)">
                    <path d="M30.636 28.386l2.935-8.712c2.073-6.229-.17-13.08-5.523-16.879l.023-.014c-1.154-.813-2.42-1.455-3.76-1.905l-.04-.014-.045-.014C22.927.408 21.572.153 20.202.09c-.484-.025-.97-.025-1.454 0-.841.044-1.677.16-2.498.346-.238.052-.476.112-.693.176-.217.064-.46.133-.686.207-.452.15-.897.32-1.333.512-.219.095-.436.195-.648.302-.64.317-1.257.68-1.845 1.086-.197.136-.39.276-.58.42-2.354 1.789-4.116 4.244-5.058 7.047L.793 23.912c-.726 2.153-.945 4.444-.638 6.695.047.345.107.688.176 1.029.069.34.155.676.238 1.01.064.22.131.442.205.661.11.326.238.653.36.972.087.211.18.423.278.633.193.417.407.824.638 1.221.231.398.476.786.752 1.162.2.281.412.557.631.824.296.357.605.714.934 1.031 1.422 1.434 3.124 2.56 5 3.307l.08.033c.101-.178.213-.35.334-.516.714-.979 1.957-1.667 3.14-1.41.086.02.172.046.258.072.6.212 1.19.59 1.769.776.426.191.914.185 1.335-.017 1.157-.616.729-2.562 1.722-3.414.046-.04.094-.076.145-.11-.014-.017-.027-.035-.038-.054.767-.477 1.828-.16 2.712.147.952.336 2.195.562 2.857-.216.448-.534.414-1.346.84-1.905.496-.643 1.429-.714 2.236-.6l.04.012c1.548.638 3.239-.422 3.12-2.09-.14-2.227.56-4.325.719-4.78z"/>
                </g>
                <path fill="#FFF" d="M91.24 147.669c.696-.952 1.889-1.619 3.031-1.36 1.143.26 2.227 1.348 3.243.803 1.39-.743.405-3.474 2.662-3.676.47-.031.942.05 1.374.238.952.388 2.443.826 3.176-.048.431-.514.4-1.297.812-1.83.476-.62 1.383-.698 2.157-.58l.038.013c1.493.616 3.127-.408 3.01-2.017-.15-2.143.53-4.162.678-4.6l2.829-8.407c2.505-7.503-1.522-15.62-9.012-18.165-7.502-2.5-15.616 1.527-18.16 9.015l-4.459 13.221c-2.406 7.219 1.228 15.062 8.29 17.893.101-.173.211-.34.331-.5z"/>
                <circle cx="96.512" cy="115.733" r="1.55" fill="#000" opacity=".2"/>
                <circle cx="105.326" cy="118.698" r="1.55" fill="#000" opacity=".2"/>
                <ellipse cx="98.948" cy="123.107" fill="#E0E0E0" rx="2.324" ry="1.55" transform="rotate(-71.4 98.948 123.107)"/>
                <circle cx="131.555" cy="116.076" r="2.324" fill="#FFF"/>
                <circle cx="138.917" cy="112.421" r="1.162" fill="#FFF"/>
                <g opacity=".5" transform="translate(84.286 12.857)">
                    <path fill="url(#uw9oxd7w4c)" d="M30.636 28.386l2.935-8.712c2.073-6.229-.17-13.08-5.523-16.879l.023-.014c-1.154-.813-2.42-1.455-3.76-1.905l-.04-.014-.045-.014C22.927.408 21.572.153 20.202.09c-.484-.025-.97-.025-1.454 0-.841.044-1.677.16-2.498.346-.238.052-.476.112-.693.176-.217.064-.46.133-.686.207-.452.15-.897.32-1.333.512-.219.095-.436.195-.648.302-.64.317-1.257.68-1.845 1.086-.197.136-.39.276-.58.42-2.354 1.789-4.116 4.244-5.058 7.047L.793 23.912c-.726 2.153-.945 4.444-.638 6.695.047.345.107.688.176 1.029.069.34.155.676.238 1.01.064.22.131.442.205.661.11.326.238.653.36.972.087.211.18.423.278.633.193.417.407.824.638 1.221.231.398.476.786.752 1.162.2.281.412.557.631.824.296.357.605.702.934 1.031 1.422 1.434 3.124 2.56 5 3.307l.08.033c.101-.178.213-.35.334-.516.714-.979 1.957-1.667 3.14-1.41.086.02.172.046.258.072.6.212 1.19.59 1.769.776.426.191.914.185 1.335-.017 1.157-.616.729-2.562 1.722-3.414.046-.04.094-.076.145-.11-.014-.017-.027-.035-.038-.054.767-.477 1.828-.16 2.712.147.952.336 2.195.562 2.857-.216.448-.534.414-1.346.84-1.905.496-.643 1.429-.714 2.236-.6h.04c1.548.638 3.239-.422 3.12-2.09-.14-2.215.56-4.313.719-4.767z" opacity=".3"/>
                    <path fill="#FFF" d="M10.05 41.24c.695-.952 1.888-1.619 3.031-1.359 1.143.26 2.226 1.348 3.243.802 1.39-.743.405-3.473 2.662-3.676.47-.03.941.05 1.374.238.952.388 2.442.826 3.176-.047.43-.515.4-1.298.812-1.831.476-.62 1.383-.698 2.157-.579l.038.012c1.493.617 3.126-.407 3.01-2.017-.15-2.143.53-4.162.678-4.6l2.829-8.407c2.504-7.503-1.523-15.62-9.012-18.164C16.545-.89 8.432 3.138 5.888 10.626l-4.46 13.222C-.976 31.066 2.658 38.909 9.72 41.74c.1-.173.211-.34.331-.5z"/>
                    <circle cx="15.321" cy="9.305" r="1.55" fill="#000" opacity=".2"/>
                    <circle cx="24.136" cy="12.269" r="1.55" fill="#000" opacity=".2"/>
                </g>
                <path fill="#000" d="M135.6 23.674c.443 1.71.666 3.47.664 5.238 0 14.588-15.264 26.414-34.095 26.414-15.412-.01-28.433-7.928-32.645-18.795 3.128 12.088 16.905 21.19 33.43 21.19 18.832 0 34.098-11.826 34.098-26.414-.004-2.613-.497-5.201-1.452-7.633z" opacity=".1"/>
                <g fill="url(#oybk558lgd)" opacity=".8" transform="translate(32.143 24.524)">
                    <ellipse cx="70.714" cy="18.495" rx="70.519" ry="18.431"/>
                </g>
                <path fill="#FFF" d="M102.857 25.198c-37.662 0-68.195 7.978-68.195 17.823h136.39c0-9.845-30.533-17.823-68.195-17.823zM102.857 60.843c37.662 0 68.195-7.979 68.195-17.822H34.662c0 9.843 30.533 17.822 68.195 17.822z"/>
                <path fill="#000" d="M102.857 60.843c37.662 0 68.195-7.979 68.195-17.822H34.662c0 9.843 30.533 17.822 68.195 17.822z" opacity=".05"/>
                <rect width="65.095" height="9.3" x="70.31" y="38.369" fill="#000" opacity=".05" rx="4.65"/>
                <path fill="#4D8AF0" d="M31.879 13.764c-.408-.177-.617-.632-.489-1.057.01-.032.017-.064.02-.097.012-.194-.104-.373-.286-.44s-.386-.006-.503.149c-.019.027-.035.055-.047.086-.177.408-.632.618-1.057.488-.032-.01-.065-.016-.098-.02-.193-.012-.372.105-.44.286-.066.182-.006.387.15.503.026.02.055.037.085.05.407.178.617.632.488 1.057-.01.031-.016.063-.019.095-.013.194.102.374.285.442.182.067.387.007.503-.149.02-.027.036-.057.048-.088.181-.403.635-.608 1.057-.476.032.01.065.016.098.019.193.012.372-.104.44-.286.066-.182.006-.386-.15-.502-.025-.024-.054-.044-.085-.06zM153.069 86.621c-.402-.182-.607-.635-.476-1.057.01-.031.016-.064.019-.097.012-.194-.104-.373-.286-.44s-.386-.006-.502.15c-.02.026-.035.055-.048.085-.177.408-.632.618-1.057.488-.032-.01-.064-.016-.098-.019-.193-.013-.372.104-.439.286s-.006.386.149.502c.026.02.055.037.086.05.402.182.606.635.476 1.057-.01.031-.016.063-.02.095-.013.194.103.374.285.442s.388.007.504-.149c.02-.027.035-.057.048-.088.18-.403.635-.608 1.057-.476.031.01.064.016.097.019.194.013.372-.104.44-.286.067-.182.006-.386-.15-.502-.025-.024-.054-.044-.085-.06zM19.26 120.431c-.408-.178-.617-.632-.489-1.057.01-.032.017-.065.02-.098.012-.193-.104-.372-.286-.44-.182-.066-.387-.006-.503.15-.019.026-.035.055-.047.085-.177.408-.632.619-1.057.489-.032-.01-.065-.017-.098-.02-.194-.012-.372.104-.44.286-.066.182-.006.386.15.503.026.02.055.037.085.05.407.177.617.632.488 1.057-.01.03-.016.063-.019.095-.013.194.102.374.285.441.182.068.387.008.503-.148.02-.027.036-.057.048-.088.181-.404.635-.608 1.057-.476.032.01.065.016.098.019.193.012.372-.104.439-.286s.007-.386-.149-.503c-.026-.023-.054-.043-.085-.059zM6.164 41.621c-.402-.182-.606-.635-.476-1.057.01-.031.016-.064.02-.097.012-.194-.105-.373-.287-.44-.181-.067-.386-.006-.502.15-.019.026-.035.055-.048.085-.176.408-.631.618-1.057.488-.031-.01-.064-.016-.097-.019-.194-.013-.373.104-.44.286s-.006.386.15.502c.025.02.054.037.085.05.407.178.617.632.488 1.057-.01.031-.016.063-.019.095-.014.194.102.374.284.442.183.068.388.007.504-.149.02-.027.036-.057.048-.088.18-.403.635-.608 1.057-.476.032.01.064.016.097.019.194.013.373-.104.44-.286s.006-.386-.15-.502c-.028-.025-.061-.045-.097-.06zM150.688 1.621c-.402-.182-.607-.635-.476-1.057.01-.031.016-.064.019-.097.012-.194-.104-.373-.286-.44s-.386-.006-.502.15c-.02.026-.035.055-.048.085-.18.403-.635.608-1.057.476-.032-.01-.064-.016-.098-.019-.212-.044-.424.073-.5.276-.076.203.009.43.198.536.026.02.055.037.086.05.402.182.606.635.476 1.057-.01.031-.016.063-.019.095-.02.202.1.392.291.459.192.067.404-.007.514-.178.02-.027.035-.057.047-.088.181-.403.635-.608 1.057-.476.032.01.065.016.098.019.194.013.372-.104.44-.286.066-.182.006-.386-.15-.502-.027-.024-.057-.044-.09-.06z" opacity=".5"/>
                <g fill="#47E6B1" opacity=".5">
                    <path d="M4.118 0.472H5.883V9.916H4.118z" transform="translate(24.524 61.19)"/>
                    <path d="M4.167 0.194L5.833 0.194 5.833 10.194 4.167 10.194z" transform="translate(24.524 61.19) rotate(90 5 5.194)"/>
                </g>
                <g fill="#47E6B1" opacity=".5">
                    <path d="M4.118 0.472H5.883V9.916H4.118z" transform="translate(195.952 42.143)"/>
                    <path d="M4.167 0.194L5.833 0.194 5.833 10.194 4.167 10.194z" transform="translate(195.952 42.143) rotate(90 5 5.194)"/>
                </g>
                <g fill="#47E6B1" opacity=".5">
                    <path d="M4.118 0.472H5.883V9.916H4.118z" transform="translate(172.143 108.571)"/>
                    <path d="M4.167 0.194L5.833 0.194 5.833 10.194 4.167 10.194z" transform="translate(172.143 108.571) rotate(90 5 5.194)"/>
                </g>
                <circle cx="172.143" cy="19.488" r="1.429" fill="#F55F44" opacity=".5"/>
                <circle cx="1.429" cy="3.06" r="1.429" fill="#F55F44" opacity=".5"/>
                <circle cx="44.286" cy="85.202" r="1.429" fill="#F55F44" opacity=".5"/>
                <ellipse cx="55.714" cy="36.769" fill="#000" opacity=".05" rx="8.095" ry="1.667"/>
                <ellipse cx="55.714" cy="49.388" fill="#000" opacity=".05" rx="8.095" ry="1.667"/>
                <ellipse cx="147.857" cy="36.769" fill="#000" opacity=".05" rx="8.095" ry="1.667"/>
                <ellipse cx="147.857" cy="49.388" fill="#000" opacity=".05" rx="8.095" ry="1.667"/>
                <ellipse cx="102.857" cy="29.626" fill="#000" opacity=".05" rx="8.095" ry="1.667"/>
                <ellipse cx="108.81" cy="12.245" fill="#000" opacity=".05" rx="8.095" ry="1.667"/>
                <ellipse cx="93.333" cy="19.388" fill="#000" opacity=".05" rx="8.095" ry="1.667"/>
                <ellipse cx="123.095" cy="22.483" fill="#000" opacity=".05" rx="8.095" ry="1.667"/>
                <ellipse cx="102.857" cy="54.388" fill="#000" opacity=".05" rx="8.095" ry="1.667"/>
            </g>
        </g>
    </g>
</svg>
