<?xml version="1.0" encoding="UTF-8" standalone="no"?>
<!DOCTYPE svg PUBLIC "-//W3C//DTD SVG 1.1//EN" "http://www.w3.org/Graphics/SVG/1.1/DTD/svg11.dtd">
<svg version="1.1" xmlns="http://www.w3.org/2000/svg" xmlns:xlink="http://www.w3.org/1999/xlink" preserveAspectRatio="xMidYMid meet" viewBox="8.513 7.0489999999999995 15.160000000000002 18.634"  width="14" height="21" ><defs><path d="M13.5 8.62C13.82 8.62 16.37 8.62 16.69 8.62C17.13 8.62 17.47 8.94 17.47 9.38C17.47 9.43 17.47 9.71 17.47 10.21L18.04 10.21C18.04 9.71 18.04 9.43 18.04 9.38C18.04 8.63 17.44 8.05 16.69 8.05C16.37 8.05 13.82 8.05 13.5 8.05C12.74 8.05 12.14 8.63 12.14 9.38C12.14 9.43 12.14 9.71 12.14 10.21L12.72 10.21L12.72 9.38C12.95 8.88 13.2 8.62 13.5 8.62Z" id="f1KQr9uURB"></path><path d="M18.49 22.68C19.15 22.68 19.66 22.11 19.66 21.39C19.66 20.8 19.66 17.84 19.66 12.51L10.53 12.51C10.53 17.84 10.53 20.8 10.53 21.39C10.53 22.11 11.04 22.68 11.69 22.68C13.05 22.68 17.81 22.68 18.49 22.68ZM17.21 13.59C17.37 13.59 17.5 13.72 17.5 13.88C17.5 14.56 17.5 20 17.5 20.68C17.5 20.84 17.37 20.96 17.21 20.96C17.05 20.96 16.93 20.84 16.93 20.68C16.93 20.22 16.93 17.96 16.93 13.88C17.01 13.69 17.11 13.59 17.21 13.59ZM15.09 13.59C15.25 13.59 15.38 13.72 15.38 13.88C15.38 14.56 15.38 20 15.38 20.68C15.38 20.84 15.25 20.96 15.09 20.96C14.93 20.96 14.81 20.84 14.81 20.68C14.81 20.22 14.81 17.96 14.81 13.88C14.89 13.69 14.99 13.59 15.09 13.59ZM12.97 13.59C13.13 13.59 13.26 13.72 13.26 13.88C13.26 14.56 13.26 20 13.26 20.68C13.26 20.84 13.13 20.96 12.97 20.96C12.81 20.96 12.68 20.84 12.68 20.68C12.68 20.22 12.68 17.96 12.68 13.88C12.77 13.69 12.87 13.59 12.97 13.59Z" id="dNE2VIiGm"></path><path d="M19.95 11.93C20.35 11.93 20.67 11.61 20.67 11.21C20.67 10.82 20.35 10.49 19.95 10.49C18.98 10.49 11.2 10.49 10.23 10.49C9.84 10.49 9.51 10.82 9.51 11.21C9.51 11.61 9.84 11.93 10.23 11.93C10.23 11.93 18.98 11.93 19.95 11.93Z" id="b2YEDylZcS"></path></defs><g><g><use xlink:href="#f1KQr9uURB" opacity="1" fill="#ffc107" fill-opacity="1"></use><g><use xlink:href="#f1KQr9uURB" opacity="1" fill-opacity="0" stroke="#000000" stroke-width="1" stroke-opacity="0"></use></g></g><g><use xlink:href="#dNE2VIiGm" opacity="1" fill="#455a64" fill-opacity="1"></use><g><use xlink:href="#dNE2VIiGm" opacity="1" fill-opacity="0" stroke="#000000" stroke-width="1" stroke-opacity="0"></use></g></g><g><use xlink:href="#b2YEDylZcS" opacity="1" fill="#ffc107" fill-opacity="1"></use><g><use xlink:href="#b2YEDylZcS" opacity="1" fill-opacity="0" stroke="#000000" stroke-width="1" stroke-opacity="0"></use></g></g></g></svg>