<?xml version="1.0" encoding="UTF-8" standalone="no"?>
<!DOCTYPE svg PUBLIC "-//W3C//DTD SVG 1.1//EN" "http://www.w3.org/Graphics/SVG/1.1/DTD/svg11.dtd">
<svg version="1.1" xmlns="http://www.w3.org/2000/svg" xmlns:xlink="http://www.w3.org/1999/xlink" preserveAspectRatio="xMidYMid meet" viewBox="0 0 11.16 14.63" width="11.16" height="14.63"><defs><path d="M3.98 0.57C4.3 0.57 6.86 0.57 7.18 0.57C7.61 0.57 7.95 0.89 7.95 1.33C7.95 1.38 7.95 1.66 7.95 2.15L8.53 2.15C8.53 1.66 8.53 1.38 8.53 1.33C8.53 0.57 7.93 0 7.18 0C6.86 0 4.3 0 3.98 0C3.23 0 2.63 0.57 2.63 1.33C2.63 1.38 2.63 1.66 2.63 2.15L3.21 2.15L3.21 1.33C3.43 0.82 3.69 0.57 3.98 0.57Z" id="a2TIRs99z9"></path><path d="M8.98 14.63C9.64 14.63 10.15 14.05 10.15 13.34C10.15 12.74 10.15 9.78 10.15 4.45L1.01 4.45C1.01 9.78 1.01 12.74 1.01 13.33C1.01 14.05 1.52 14.63 2.18 14.63C3.54 14.63 8.3 14.63 8.98 14.63ZM7.7 5.54C7.86 5.54 7.99 5.67 7.99 5.83C7.99 6.51 7.99 11.94 7.99 12.62C7.99 12.78 7.86 12.91 7.7 12.91C7.54 12.91 7.41 12.78 7.41 12.62C7.41 12.17 7.41 9.91 7.41 5.83C7.5 5.64 7.59 5.54 7.7 5.54ZM5.58 5.54C5.74 5.54 5.87 5.67 5.87 5.83C5.87 6.51 5.87 11.94 5.87 12.62C5.87 12.78 5.74 12.91 5.58 12.91C5.42 12.91 5.29 12.78 5.29 12.62C5.29 12.17 5.29 9.91 5.29 5.83C5.38 5.64 5.47 5.54 5.58 5.54ZM3.46 5.54C3.62 5.54 3.75 5.67 3.75 5.83C3.75 6.51 3.75 11.94 3.75 12.62C3.75 12.78 3.62 12.91 3.46 12.91C3.3 12.91 3.17 12.78 3.17 12.62C3.17 12.17 3.17 9.91 3.17 5.83C3.26 5.64 3.35 5.54 3.46 5.54Z" id="eAYc9mcIC"></path><path d="M10.44 3.88C10.84 3.88 11.16 3.56 11.16 3.16C11.16 2.76 10.84 2.44 10.44 2.44C9.47 2.44 1.69 2.44 0.72 2.44C0.32 2.44 0 2.76 0 3.16C0 3.56 0.32 3.88 0.72 3.88C0.72 3.88 9.47 3.88 10.44 3.88Z" id="g4ssKprOR"></path></defs><g><g><g><use xlink:href="#a2TIRs99z9" opacity="1" fill="#ffc107" fill-opacity="1"></use></g><g><use xlink:href="#eAYc9mcIC" opacity="1" fill="#455a64" fill-opacity="1"></use></g><g><use xlink:href="#g4ssKprOR" opacity="1" fill="#ffc107" fill-opacity="1"></use></g></g></g></svg>