<svg xmlns="http://www.w3.org/2000/svg" width="17" height="20" viewBox="0 0 17 20">
    <g fill="none" fill-rule="evenodd">
        <g fill="#455A64" fill-rule="nonzero">
            <g>
                <g>
                    <path d="M8.5 0C5.688 0 3.4 2.288 3.4 5.1s2.288 5.1 5.1 5.1 5.1-2.288 5.1-5.1S11.312 0 8.5 0zM14.845 13.532c-1.396-1.418-3.247-2.199-5.212-2.199H7.367c-1.965 0-3.816.781-5.212 2.199C.765 14.942 0 16.805 0 18.776c0 .313.254.566.567.566h15.866c.313 0 .567-.253.567-.566 0-1.971-.765-3.833-2.155-5.244z" transform="translate(-27 -562) translate(16 545) translate(11 17)"/>
                </g>
            </g>
        </g>
    </g>
</svg>
