<svg xmlns="http://www.w3.org/2000/svg" width="40" height="40" viewBox="0 0 40 40">
    <path fill="#FEBF00" d="M34.142 5.858C30.365 2.08 25.342 0 20 0 14.658 0 9.635 2.08 5.858 5.858 2.08 9.635 0 14.658 0 20c0 5.342 2.08 10.365 5.858 14.142C9.635 37.92 14.658 40 20 40c5.342 0 10.365-2.08 14.142-5.858C37.92 30.365 40 25.342 40 20c0-5.342-2.08-10.365-5.858-14.142zM31.32 20.975L16.257 31.017c-.196.13-.423.197-.65.197-.19 0-.38-.046-.553-.14-.381-.203-.62-.6-.62-1.032V9.958c0-.432.239-.829.62-1.033.38-.204.843-.181 1.203.058l15.062 10.042c.326.217.522.583.522.975s-.196.758-.522.975z"/>
</svg>
