<svg xmlns="http://www.w3.org/2000/svg" width="42" height="42" viewBox="0 0 42 42">
    <g fill="none" fill-rule="evenodd">
        <g>
            <g transform="translate(-317 -37) translate(317 37)">
                <rect width="42" height="42" rx="4"/>
                <g fill-rule="nonzero">
                    <path fill="#455A64" d="M20.623 22.808l3.021.836-.835-3.02c.753-1.16 1.191-2.544 1.191-4.03 0-4.09-3.316-7.407-7.406-7.407s-7.407 3.316-7.407 7.407c0 4.09 3.316 7.406 7.407 7.406 1.486 0 2.87-.438 4.03-1.192z" transform="translate(9 9)"/>
                    <path fill="#FFC107" d="M9.164 0l-3.75 9.164 3.75 9.164c5.053 0 9.164-4.11 9.164-9.164C18.328 4.111 14.218 0 9.164 0z" transform="translate(9 9)"/>
                    <path fill="#FFC107" d="M0 9.164c0 1.647.438 3.25 1.27 4.658L.035 18.294l4.472-1.237c1.408.833 3.011 1.271 4.658 1.271V0C4.111 0 0 4.11 0 9.164z" transform="translate(9 9)"/>
                    <path fill="#262626" d="M8.461 12.703L9.867 12.703 9.867 14.109 8.461 14.109z" transform="translate(9 9)"/>
                    <path fill="#292C32" d="M8.461 9.581L8.461 11.297 9.164 11.297 9.633 10.117 9.164 8.937z" transform="translate(9 9)"/>
                    <path fill="#262626" d="M6.352 7.031h1.406c0-.775.63-1.406 1.406-1.406l.469-.703-.469-.703c-1.55 0-2.812 1.261-2.812 2.812z" transform="translate(9 9)"/>
                    <path fill="#262626" d="M9.164 4.219v1.406c.776 0 1.406.63 1.406 1.406 0 .4-.162.768-.457 1.038l-.949.868v2.36h.703V10.2l1.195-1.093c.581-.532.915-1.289.915-2.076 0-1.55-1.262-2.812-2.813-2.812z" transform="translate(9 9)"/>
                </g>
            </g>
        </g>
    </g>
</svg>
